<svg width="575" height="525" viewBox="0 0 575 525" fill="none" xmlns="http://www.w3.org/2000/svg">
<g filter="url(#filter0_d_1_8039)">
<rect x="256" y="76.5" width="257" height="220" rx="6" fill="white"/>
</g>
<path d="M281.136 112.5V101.524H285.68C286.331 101.524 286.933 101.631 287.488 101.844C288.053 102.047 288.549 102.351 288.976 102.756C289.413 103.151 289.749 103.647 289.984 104.244C290.229 104.831 290.352 105.508 290.352 106.276V107.476C290.352 108.244 290.229 108.937 289.984 109.556C289.749 110.164 289.413 110.692 288.976 111.14C288.549 111.577 288.053 111.913 287.488 112.148C286.933 112.383 286.331 112.5 285.68 112.5H281.136ZM283.824 110.452H285.456C285.84 110.452 286.187 110.361 286.496 110.18C286.816 109.999 287.067 109.732 287.248 109.38C287.429 109.017 287.52 108.569 287.52 108.036V105.812C287.52 105.279 287.429 104.847 287.248 104.516C287.067 104.185 286.816 103.94 286.496 103.78C286.187 103.62 285.84 103.54 285.456 103.54H283.824V110.452ZM294.199 112.66C293.761 112.66 293.345 112.585 292.951 112.436C292.556 112.287 292.231 112.047 291.975 111.716C291.729 111.375 291.607 110.916 291.607 110.34C291.607 109.764 291.729 109.295 291.975 108.932C292.231 108.559 292.593 108.271 293.062 108.068C293.543 107.865 294.113 107.727 294.775 107.652C295.447 107.567 296.193 107.524 297.015 107.524V106.868C297.015 106.441 296.897 106.143 296.663 105.972C296.428 105.791 296.097 105.7 295.671 105.7C295.287 105.7 294.961 105.785 294.695 105.956C294.428 106.127 294.295 106.377 294.295 106.708V106.82H291.879C291.868 106.788 291.863 106.751 291.863 106.708C291.863 106.655 291.863 106.601 291.863 106.548C291.863 106.089 292.012 105.679 292.311 105.316C292.609 104.953 293.031 104.671 293.575 104.468C294.129 104.265 294.775 104.164 295.511 104.164H295.911C297.105 104.164 297.996 104.399 298.583 104.868C299.169 105.327 299.463 105.94 299.463 106.708V110.484C299.463 110.687 299.511 110.836 299.607 110.932C299.713 111.017 299.825 111.06 299.943 111.06C300.049 111.06 300.156 111.044 300.263 111.012C300.369 110.969 300.471 110.927 300.567 110.884V112.308C300.428 112.415 300.241 112.5 300.007 112.564C299.772 112.628 299.473 112.66 299.111 112.66C298.705 112.66 298.359 112.601 298.071 112.484C297.793 112.356 297.58 112.191 297.431 111.988C297.281 111.785 297.185 111.551 297.143 111.284C296.844 111.668 296.455 111.993 295.975 112.26C295.495 112.527 294.903 112.66 294.199 112.66ZM295.447 111.06C295.713 111.06 295.964 111.001 296.199 110.884C296.444 110.756 296.641 110.575 296.791 110.34C296.94 110.095 297.015 109.796 297.015 109.444V108.788C296.396 108.788 295.879 108.831 295.463 108.916C295.047 109.001 294.732 109.135 294.519 109.316C294.316 109.497 294.215 109.748 294.215 110.068C294.215 110.441 294.327 110.703 294.551 110.852C294.785 110.991 295.084 111.06 295.447 111.06ZM304.827 112.66C304.326 112.66 303.883 112.596 303.499 112.468C303.115 112.34 302.811 112.121 302.587 111.812C302.374 111.492 302.267 111.071 302.267 110.548V106.164H301.371V104.324H302.347L303.227 101.716H304.779V104.324H306.683V106.164H304.779V109.956C304.779 110.425 304.875 110.729 305.067 110.868C305.259 110.996 305.467 111.06 305.691 111.06C305.809 111.06 305.969 111.039 306.171 110.996C306.385 110.943 306.555 110.889 306.683 110.836V112.34C306.534 112.404 306.342 112.463 306.107 112.516C305.883 112.569 305.654 112.607 305.419 112.628C305.195 112.649 304.998 112.66 304.827 112.66ZM310.386 112.66C309.949 112.66 309.533 112.585 309.138 112.436C308.743 112.287 308.418 112.047 308.162 111.716C307.917 111.375 307.794 110.916 307.794 110.34C307.794 109.764 307.917 109.295 308.162 108.932C308.418 108.559 308.781 108.271 309.25 108.068C309.73 107.865 310.301 107.727 310.962 107.652C311.634 107.567 312.381 107.524 313.202 107.524V106.868C313.202 106.441 313.085 106.143 312.85 105.972C312.615 105.791 312.285 105.7 311.858 105.7C311.474 105.7 311.149 105.785 310.882 105.956C310.615 106.127 310.482 106.377 310.482 106.708V106.82H308.066C308.055 106.788 308.05 106.751 308.05 106.708C308.05 106.655 308.05 106.601 308.05 106.548C308.05 106.089 308.199 105.679 308.498 105.316C308.797 104.953 309.218 104.671 309.762 104.468C310.317 104.265 310.962 104.164 311.698 104.164H312.098C313.293 104.164 314.183 104.399 314.77 104.868C315.357 105.327 315.65 105.94 315.65 106.708V110.484C315.65 110.687 315.698 110.836 315.794 110.932C315.901 111.017 316.013 111.06 316.13 111.06C316.237 111.06 316.343 111.044 316.45 111.012C316.557 110.969 316.658 110.927 316.754 110.884V112.308C316.615 112.415 316.429 112.5 316.194 112.564C315.959 112.628 315.661 112.66 315.298 112.66C314.893 112.66 314.546 112.601 314.258 112.484C313.981 112.356 313.767 112.191 313.618 111.988C313.469 111.785 313.373 111.551 313.33 111.284C313.031 111.668 312.642 111.993 312.162 112.26C311.682 112.527 311.09 112.66 310.386 112.66ZM311.634 111.06C311.901 111.06 312.151 111.001 312.386 110.884C312.631 110.756 312.829 110.575 312.978 110.34C313.127 110.095 313.202 109.796 313.202 109.444V108.788C312.583 108.788 312.066 108.831 311.65 108.916C311.234 109.001 310.919 109.135 310.706 109.316C310.503 109.497 310.402 109.748 310.402 110.068C310.402 110.441 310.514 110.703 310.738 110.852C310.973 110.991 311.271 111.06 311.634 111.06ZM320.391 112.5L324.311 101.524H327.543L331.447 112.5H328.663L327.879 110.324H323.751L322.983 112.5H320.391ZM324.391 108.436H327.239L325.863 104.292H325.783L324.391 108.436ZM332.461 112.5V104.324H334.333L334.621 105.508C334.951 105.049 335.335 104.713 335.773 104.5C336.21 104.276 336.722 104.164 337.309 104.164C337.863 104.164 338.343 104.271 338.749 104.484C339.165 104.687 339.485 104.98 339.709 105.364C339.933 105.748 340.045 106.207 340.045 106.74V112.5H337.533V107.316C337.533 106.879 337.421 106.548 337.197 106.324C336.973 106.1 336.679 105.988 336.317 105.988C336.071 105.988 335.847 106.052 335.645 106.18C335.442 106.308 335.277 106.479 335.149 106.692C335.031 106.895 334.973 107.129 334.973 107.396V112.5H332.461ZM344.167 112.66C343.73 112.66 343.314 112.585 342.919 112.436C342.525 112.287 342.199 112.047 341.943 111.716C341.698 111.375 341.575 110.916 341.575 110.34C341.575 109.764 341.698 109.295 341.943 108.932C342.199 108.559 342.562 108.271 343.031 108.068C343.511 107.865 344.082 107.727 344.743 107.652C345.415 107.567 346.162 107.524 346.983 107.524V106.868C346.983 106.441 346.866 106.143 346.631 105.972C346.397 105.791 346.066 105.7 345.639 105.7C345.255 105.7 344.93 105.785 344.663 105.956C344.397 106.127 344.263 106.377 344.263 106.708V106.82H341.847C341.837 106.788 341.831 106.751 341.831 106.708C341.831 106.655 341.831 106.601 341.831 106.548C341.831 106.089 341.981 105.679 342.279 105.316C342.578 104.953 342.999 104.671 343.543 104.468C344.098 104.265 344.743 104.164 345.479 104.164H345.879C347.074 104.164 347.965 104.399 348.551 104.868C349.138 105.327 349.431 105.94 349.431 106.708V110.484C349.431 110.687 349.479 110.836 349.575 110.932C349.682 111.017 349.794 111.06 349.911 111.06C350.018 111.06 350.125 111.044 350.231 111.012C350.338 110.969 350.439 110.927 350.535 110.884V112.308C350.397 112.415 350.21 112.5 349.975 112.564C349.741 112.628 349.442 112.66 349.079 112.66C348.674 112.66 348.327 112.601 348.039 112.484C347.762 112.356 347.549 112.191 347.399 111.988C347.25 111.785 347.154 111.551 347.111 111.284C346.813 111.668 346.423 111.993 345.943 112.26C345.463 112.527 344.871 112.66 344.167 112.66ZM345.415 111.06C345.682 111.06 345.933 111.001 346.167 110.884C346.413 110.756 346.61 110.575 346.759 110.34C346.909 110.095 346.983 109.796 346.983 109.444V108.788C346.365 108.788 345.847 108.831 345.431 108.916C345.015 109.001 344.701 109.135 344.487 109.316C344.285 109.497 344.183 109.748 344.183 110.068C344.183 110.441 344.295 110.703 344.519 110.852C344.754 110.991 345.053 111.06 345.415 111.06ZM351.836 112.5V100.98H354.348V112.5H351.836ZM357.439 115.476C357.14 115.476 356.874 115.455 356.639 115.412C356.404 115.38 356.196 115.327 356.015 115.252V113.508C356.132 113.561 356.292 113.609 356.495 113.652C356.708 113.695 356.916 113.716 357.119 113.716C357.428 113.716 357.668 113.652 357.839 113.524C358.02 113.407 358.164 113.241 358.271 113.028C358.378 112.815 358.474 112.575 358.559 112.308L355.455 104.324H358.143L359.823 109.316H359.935L361.487 104.324H363.967L361.071 112.02C360.836 112.671 360.554 113.257 360.223 113.78C359.892 114.303 359.498 114.713 359.039 115.012C358.591 115.321 358.058 115.476 357.439 115.476ZM368.015 112.66C367.514 112.66 367.071 112.596 366.687 112.468C366.303 112.34 365.999 112.121 365.775 111.812C365.562 111.492 365.455 111.071 365.455 110.548V106.164H364.559V104.324H365.535L366.415 101.716H367.967V104.324H369.871V106.164H367.967V109.956C367.967 110.425 368.063 110.729 368.255 110.868C368.447 110.996 368.655 111.06 368.879 111.06C368.996 111.06 369.156 111.039 369.359 110.996C369.572 110.943 369.743 110.889 369.871 110.836V112.34C369.722 112.404 369.53 112.463 369.295 112.516C369.071 112.569 368.842 112.607 368.607 112.628C368.383 112.649 368.186 112.66 368.015 112.66ZM371.493 112.5V104.324H374.006V112.5H371.493ZM371.462 102.868V100.98H374.022V102.868H371.462ZM379.463 112.66C378.77 112.66 378.135 112.489 377.559 112.148C376.983 111.796 376.524 111.321 376.183 110.724C375.842 110.116 375.671 109.433 375.671 108.676V108.132C375.671 107.556 375.772 107.028 375.975 106.548C376.178 106.068 376.455 105.652 376.807 105.3C377.17 104.937 377.58 104.66 378.039 104.468C378.508 104.265 379.01 104.164 379.543 104.164H379.895C380.652 104.164 381.298 104.308 381.831 104.596C382.375 104.884 382.791 105.284 383.079 105.796C383.367 106.308 383.511 106.905 383.511 107.588H381.335C381.335 107.183 381.276 106.847 381.159 106.58C381.042 106.303 380.876 106.1 380.663 105.972C380.45 105.833 380.183 105.764 379.863 105.764C379.436 105.764 379.074 105.913 378.775 106.212C378.487 106.5 378.343 106.911 378.343 107.444V109.348C378.343 109.881 378.476 110.303 378.743 110.612C379.02 110.911 379.404 111.06 379.895 111.06C380.247 111.06 380.535 111.001 380.759 110.884C380.994 110.767 381.17 110.575 381.287 110.308C381.404 110.041 381.463 109.684 381.463 109.236H383.511C383.511 109.961 383.351 110.58 383.031 111.092C382.722 111.604 382.29 111.993 381.735 112.26C381.18 112.527 380.54 112.66 379.815 112.66H379.463ZM388.047 112.66C387.556 112.66 387.103 112.601 386.687 112.484C386.271 112.367 385.903 112.201 385.583 111.988C385.273 111.764 385.028 111.503 384.847 111.204C384.676 110.895 384.59 110.553 384.59 110.18C384.59 110.127 384.59 110.079 384.59 110.036C384.59 109.993 384.596 109.94 384.607 109.876H386.703C386.692 109.897 386.687 109.919 386.687 109.94C386.687 109.961 386.687 109.983 386.687 110.004C386.687 110.26 386.772 110.468 386.943 110.628C387.113 110.777 387.332 110.889 387.599 110.964C387.865 111.028 388.143 111.06 388.431 111.06C388.644 111.06 388.873 111.033 389.119 110.98C389.375 110.927 389.593 110.841 389.775 110.724C389.956 110.607 390.047 110.447 390.047 110.244C390.047 110.02 389.951 109.849 389.759 109.732C389.577 109.615 389.332 109.524 389.023 109.46C388.713 109.396 388.372 109.337 387.999 109.284C387.636 109.22 387.268 109.145 386.895 109.06C386.521 108.964 386.18 108.831 385.871 108.66C385.561 108.479 385.311 108.239 385.118 107.94C384.937 107.641 384.847 107.252 384.847 106.772C384.847 106.335 384.943 105.951 385.135 105.62C385.337 105.289 385.609 105.017 385.951 104.804C386.303 104.591 386.692 104.431 387.119 104.324C387.545 104.217 387.983 104.164 388.431 104.164H388.799C389.204 104.164 389.604 104.217 389.999 104.324C390.393 104.42 390.751 104.564 391.071 104.756C391.391 104.948 391.647 105.183 391.839 105.46C392.031 105.727 392.127 106.025 392.127 106.356C392.127 106.42 392.121 106.489 392.111 106.564C392.111 106.628 392.111 106.681 392.111 106.724H389.983V106.596C389.983 106.489 389.951 106.383 389.887 106.276C389.823 106.169 389.727 106.079 389.599 106.004C389.471 105.919 389.316 105.855 389.135 105.812C388.964 105.759 388.761 105.732 388.527 105.732C388.335 105.732 388.148 105.753 387.967 105.796C387.785 105.828 387.625 105.876 387.487 105.94C387.359 106.004 387.257 106.084 387.183 106.18C387.108 106.265 387.071 106.361 387.071 106.468C387.071 106.681 387.161 106.841 387.343 106.948C387.535 107.055 387.785 107.14 388.095 107.204C388.415 107.257 388.761 107.311 389.135 107.364C389.508 107.407 389.881 107.476 390.255 107.572C390.628 107.657 390.969 107.791 391.279 107.972C391.588 108.143 391.839 108.383 392.031 108.692C392.223 108.991 392.319 109.385 392.319 109.876C392.319 110.399 392.217 110.841 392.015 111.204C391.812 111.556 391.535 111.839 391.183 112.052C390.841 112.265 390.452 112.42 390.015 112.516C389.577 112.612 389.124 112.66 388.655 112.66H388.047Z" fill="#060C3C"/>
<rect x="280" y="270.5" width="24" height="6" rx="3" fill="#B4B6C4"/>
<rect x="326" y="270.5" width="24" height="6" rx="3" fill="#B4B6C4"/>
<rect x="372" y="270.5" width="24" height="6" rx="3" fill="#B4B6C4"/>
<rect x="418" y="270.5" width="24" height="6" rx="3" fill="#B4B6C4"/>
<rect x="464" y="270.5" width="24" height="6" rx="3" fill="#B4B6C4"/>
<line opacity="0.2" x1="280.5" y1="226" x2="488.5" y2="226" stroke="#B4B6C4" stroke-linecap="round"/>
<line opacity="0.2" x1="280.5" y1="198" x2="488.5" y2="198" stroke="#B4B6C4" stroke-linecap="round"/>
<line opacity="0.2" x1="280.5" y1="170" x2="488.5" y2="170" stroke="#B4B6C4" stroke-linecap="round"/>
<line opacity="0.2" x1="280.5" y1="142" x2="488.5" y2="142" stroke="#B4B6C4" stroke-linecap="round"/>
<line opacity="0.2" x1="280.5" y1="254" x2="488.5" y2="254" stroke="#B4B6C4" stroke-linecap="round"/>
<rect x="281" y="175.5" width="16" height="78" fill="#9374FF"/>
<rect x="409" y="156.5" width="16" height="97" fill="#9374FF"/>
<rect x="345" y="198.5" width="16" height="55" fill="#9374FF"/>
<rect x="473" y="180.5" width="16" height="73" fill="#9374FF"/>
<rect x="377" y="186.5" width="16" height="67" fill="#FFDC60"/>
<rect x="313" y="200.5" width="16" height="53" fill="#FFDC60"/>
<rect x="441" y="167.5" width="16" height="86" fill="#FFDC60"/>
<path d="M281.5 172C293.631 140.581 305.142 200.5 320.5 200.5C333.855 200.5 338.48 177.049 350.5 177.049C358.513 177.049 364.02 187.09 373 187C381.98 186.91 378 170.5 393.5 185.5C408.377 199.897 404.314 139.522 417.002 139.522C427.018 139.522 423.011 164.767 438.37 164.767C450.389 164.767 452.393 146.345 463.077 146.345C475.764 146.345 467.083 177.049 486.448 177.049" stroke="#6241D4" stroke-width="2" stroke-linecap="round" stroke-linejoin="round"/>
<g filter="url(#filter1_d_1_8039)">
<rect x="38" y="328.5" width="388" height="150" rx="6" fill="white"/>
</g>
<circle cx="377" cy="426.5" r="25" fill="#9374FF"/>
<circle cx="341" cy="426.5" r="25" fill="#FFDC60"/>
<circle cx="305" cy="426.5" r="25" fill="#9374FF"/>
<circle cx="269" cy="426.5" r="25" fill="#FFDC60"/>
<path d="M69.7824 443.823C69.3797 443.392 68.6202 443.392 68.2176 443.823L64.2255 448.086C63.6938 448.654 64.162 449.5 65.0079 449.5L72.9921 449.5C73.838 449.5 74.3062 448.654 73.7745 448.086L69.7824 443.823Z" fill="#38E7B2"/>
<path d="M87.088 453.64C86.416 453.64 85.8327 453.523 85.338 453.29C84.8527 453.057 84.4793 452.735 84.218 452.324C83.9567 451.913 83.826 451.447 83.826 450.924V450.672H85.156C85.156 451.316 85.3427 451.783 85.716 452.072C86.0893 452.361 86.5933 452.506 87.228 452.506C87.8347 452.506 88.334 452.361 88.726 452.072C89.118 451.783 89.314 451.353 89.314 450.784C89.314 450.392 89.2253 450.075 89.048 449.832C88.8707 449.58 88.628 449.398 88.32 449.286C88.0213 449.165 87.6947 449.104 87.34 449.104H86.136V448.082H87.214C87.55 448.082 87.8627 448.021 88.152 447.9C88.4413 447.779 88.67 447.597 88.838 447.354C89.0153 447.111 89.104 446.813 89.104 446.458C89.104 446.103 89.02 445.814 88.852 445.59C88.684 445.357 88.4553 445.184 88.166 445.072C87.886 444.96 87.5687 444.904 87.214 444.904C86.6353 444.904 86.178 445.049 85.842 445.338C85.506 445.627 85.338 446.047 85.338 446.598H84.064V446.36C84.064 445.828 84.204 445.371 84.484 444.988C84.7733 444.596 85.156 444.293 85.632 444.078C86.108 443.863 86.6447 443.756 87.242 443.756H87.438C88.0167 443.756 88.5393 443.859 89.006 444.064C89.4727 444.269 89.8413 444.568 90.112 444.96C90.3827 445.343 90.518 445.8 90.518 446.332C90.518 446.705 90.448 447.032 90.308 447.312C90.1773 447.583 90 447.816 89.776 448.012C89.552 448.199 89.3 448.357 89.02 448.488V448.558C89.5147 448.717 89.9253 448.987 90.252 449.37C90.5787 449.743 90.742 450.247 90.742 450.882C90.742 451.423 90.5927 451.899 90.294 452.31C89.9953 452.721 89.5847 453.047 89.062 453.29C88.5487 453.523 87.9653 453.64 87.312 453.64H87.088ZM92.5233 453.5V453.066C92.5233 452.478 92.6493 451.974 92.9013 451.554C93.1533 451.134 93.5173 450.756 93.9933 450.42L96.6673 448.572C96.9753 448.357 97.2366 448.096 97.4513 447.788C97.6659 447.48 97.7733 447.111 97.7733 446.682C97.7733 446.131 97.6099 445.702 97.2833 445.394C96.9659 445.086 96.4993 444.932 95.8833 444.932C95.5099 444.932 95.1739 445.016 94.8753 445.184C94.5859 445.352 94.3573 445.581 94.1893 445.87C94.0213 446.159 93.9373 446.486 93.9373 446.85C93.9373 446.915 93.9373 446.976 93.9373 447.032C93.9373 447.088 93.9419 447.144 93.9513 447.2H92.6213C92.6213 447.135 92.6213 447.088 92.6213 447.06C92.6213 447.023 92.6213 446.985 92.6213 446.948C92.6213 446.323 92.7613 445.772 93.0413 445.296C93.3306 444.811 93.7226 444.433 94.2173 444.162C94.7213 443.891 95.2953 443.756 95.9393 443.756H96.1073C96.7606 443.756 97.3159 443.877 97.7733 444.12C98.2399 444.363 98.5946 444.699 98.8373 445.128C99.0893 445.548 99.2153 446.047 99.2153 446.626C99.2153 447.111 99.1313 447.536 98.9633 447.9C98.8046 448.264 98.5853 448.581 98.3053 448.852C98.0346 449.123 97.7266 449.375 97.3813 449.608L94.8893 451.33C94.7493 451.423 94.6279 451.531 94.5253 451.652C94.4226 451.764 94.3433 451.876 94.2873 451.988C94.2406 452.091 94.2079 452.184 94.1893 452.268H99.2573V453.5H92.5233ZM101.753 453.5L107.591 443.896H108.585L102.761 453.5H101.753ZM102.355 448.796C102.028 448.796 101.739 448.721 101.487 448.572C101.235 448.413 101.034 448.203 100.885 447.942C100.745 447.681 100.675 447.396 100.675 447.088V445.59C100.675 445.282 100.745 445.002 100.885 444.75C101.034 444.489 101.235 444.283 101.487 444.134C101.739 443.975 102.028 443.896 102.355 443.896H102.481C102.826 443.896 103.12 443.975 103.363 444.134C103.615 444.283 103.811 444.489 103.951 444.75C104.1 445.002 104.175 445.282 104.175 445.59V447.088C104.175 447.396 104.1 447.681 103.951 447.942C103.811 448.203 103.615 448.413 103.363 448.572C103.12 448.721 102.831 448.796 102.495 448.796H102.355ZM102.425 448.026C102.695 448.026 102.901 447.947 103.041 447.788C103.181 447.629 103.251 447.429 103.251 447.186V445.492C103.251 445.259 103.181 445.063 103.041 444.904C102.901 444.745 102.695 444.666 102.425 444.666C102.173 444.666 101.972 444.745 101.823 444.904C101.673 445.063 101.599 445.259 101.599 445.492V447.186C101.599 447.429 101.673 447.629 101.823 447.788C101.972 447.947 102.173 448.026 102.425 448.026ZM107.815 453.514C107.488 453.514 107.199 453.439 106.947 453.29C106.695 453.131 106.494 452.921 106.345 452.66C106.205 452.399 106.135 452.114 106.135 451.806V450.308C106.135 450 106.205 449.72 106.345 449.468C106.494 449.207 106.695 449.001 106.947 448.852C107.199 448.693 107.488 448.614 107.815 448.614H107.941C108.286 448.614 108.58 448.693 108.823 448.852C109.075 449.001 109.271 449.207 109.411 449.468C109.56 449.72 109.635 450 109.635 450.308V451.806C109.635 452.114 109.56 452.399 109.411 452.66C109.271 452.921 109.075 453.131 108.823 453.29C108.58 453.439 108.291 453.514 107.955 453.514H107.815ZM107.885 452.744C108.155 452.744 108.361 452.665 108.501 452.506C108.641 452.338 108.711 452.137 108.711 451.904V450.21C108.711 449.977 108.641 449.781 108.501 449.622C108.361 449.463 108.155 449.384 107.885 449.384C107.633 449.384 107.432 449.463 107.283 449.622C107.133 449.781 107.059 449.977 107.059 450.21V451.904C107.059 452.137 107.133 452.338 107.283 452.506C107.432 452.665 107.633 452.744 107.885 452.744ZM116.448 453.64C116.103 453.64 115.79 453.584 115.51 453.472C115.239 453.36 115.025 453.183 114.866 452.94C114.717 452.688 114.642 452.357 114.642 451.946V447.438H113.858V446.346H114.684L115.174 444.064H116.042V446.346H117.708V447.438H116.042V451.694C116.042 452.105 116.126 452.366 116.294 452.478C116.462 452.59 116.644 452.646 116.84 452.646C116.943 452.646 117.083 452.623 117.26 452.576C117.447 452.529 117.596 452.483 117.708 452.436V453.374C117.605 453.43 117.479 453.477 117.33 453.514C117.19 453.561 117.041 453.593 116.882 453.612C116.733 453.631 116.588 453.64 116.448 453.64ZM119.544 453.5V443.42H120.944V447.298C121.196 446.934 121.518 446.663 121.91 446.486C122.311 446.299 122.722 446.206 123.142 446.206C123.627 446.206 124.056 446.299 124.43 446.486C124.803 446.673 125.097 446.953 125.312 447.326C125.536 447.69 125.648 448.147 125.648 448.698V453.5H124.248V448.936C124.248 448.348 124.108 447.928 123.828 447.676C123.557 447.415 123.174 447.284 122.68 447.284C122.362 447.284 122.068 447.363 121.798 447.522C121.536 447.681 121.326 447.895 121.168 448.166C121.018 448.427 120.944 448.731 120.944 449.076V453.5H119.544ZM127.995 453.5V446.346H129.395V453.5H127.995ZM127.953 444.596V443.42H129.437V444.596H127.953ZM134.203 453.64C133.708 453.64 133.279 453.579 132.915 453.458C132.551 453.337 132.248 453.178 132.005 452.982C131.762 452.777 131.58 452.553 131.459 452.31C131.338 452.058 131.277 451.811 131.277 451.568C131.277 451.512 131.277 451.465 131.277 451.428C131.277 451.381 131.282 451.325 131.291 451.26H132.523C132.514 451.288 132.509 451.316 132.509 451.344C132.509 451.363 132.509 451.386 132.509 451.414C132.509 451.685 132.593 451.913 132.761 452.1C132.938 452.277 133.172 452.413 133.461 452.506C133.76 452.599 134.096 452.646 134.469 452.646C134.786 452.646 135.076 452.604 135.337 452.52C135.608 452.436 135.818 452.315 135.967 452.156C136.126 451.988 136.205 451.792 136.205 451.568C136.205 451.307 136.121 451.106 135.953 450.966C135.785 450.817 135.561 450.705 135.281 450.63C135.001 450.546 134.693 450.476 134.357 450.42C134.03 450.355 133.694 450.285 133.349 450.21C133.013 450.126 132.705 450.014 132.425 449.874C132.145 449.734 131.921 449.543 131.753 449.3C131.585 449.048 131.501 448.717 131.501 448.306C131.501 447.989 131.571 447.699 131.711 447.438C131.851 447.177 132.052 446.957 132.313 446.78C132.574 446.593 132.882 446.453 133.237 446.36C133.601 446.257 133.998 446.206 134.427 446.206H134.609C135.02 446.206 135.393 446.262 135.729 446.374C136.065 446.477 136.354 446.621 136.597 446.808C136.84 446.985 137.022 447.191 137.143 447.424C137.274 447.648 137.339 447.886 137.339 448.138C137.339 448.185 137.334 448.236 137.325 448.292C137.325 448.339 137.325 448.371 137.325 448.39H136.093V448.236C136.093 448.143 136.07 448.04 136.023 447.928C135.986 447.807 135.902 447.695 135.771 447.592C135.65 447.48 135.477 447.387 135.253 447.312C135.038 447.237 134.758 447.2 134.413 447.2C134.086 447.2 133.816 447.233 133.601 447.298C133.386 447.363 133.218 447.447 133.097 447.55C132.985 447.653 132.906 447.76 132.859 447.872C132.812 447.984 132.789 448.087 132.789 448.18C132.789 448.404 132.873 448.586 133.041 448.726C133.209 448.857 133.433 448.959 133.713 449.034C133.993 449.109 134.301 449.174 134.637 449.23C134.982 449.286 135.323 449.356 135.659 449.44C135.995 449.515 136.303 449.627 136.583 449.776C136.863 449.916 137.087 450.112 137.255 450.364C137.423 450.616 137.507 450.943 137.507 451.344C137.507 451.764 137.428 452.123 137.269 452.422C137.11 452.711 136.891 452.945 136.611 453.122C136.331 453.299 136.009 453.43 135.645 453.514C135.281 453.598 134.894 453.64 134.483 453.64H134.203ZM142.485 453.5V446.346H143.521L143.731 447.396C143.964 447.023 144.254 446.733 144.599 446.528C144.944 446.313 145.341 446.206 145.789 446.206C146.256 446.206 146.671 446.299 147.035 446.486C147.399 446.673 147.684 446.971 147.889 447.382C148.094 447.037 148.379 446.757 148.743 446.542C149.116 446.318 149.555 446.206 150.059 446.206C150.516 446.206 150.922 446.299 151.277 446.486C151.632 446.673 151.907 446.953 152.103 447.326C152.308 447.69 152.411 448.147 152.411 448.698V453.5H151.025V449.006C151.025 448.409 150.904 447.975 150.661 447.704C150.428 447.433 150.092 447.298 149.653 447.298C149.364 447.298 149.102 447.373 148.869 447.522C148.645 447.671 148.468 447.881 148.337 448.152C148.216 448.423 148.155 448.726 148.155 449.062V453.5H146.755V449.006C146.755 448.409 146.634 447.975 146.391 447.704C146.158 447.433 145.817 447.298 145.369 447.298C145.08 447.298 144.823 447.373 144.599 447.522C144.375 447.671 144.198 447.881 144.067 448.152C143.946 448.423 143.885 448.726 143.885 449.062V453.5H142.485ZM157.593 453.64C156.977 453.64 156.421 453.495 155.927 453.206C155.441 452.917 155.059 452.501 154.779 451.96C154.499 451.419 154.359 450.779 154.359 450.042V449.804C154.359 449.048 154.499 448.404 154.779 447.872C155.059 447.331 155.441 446.92 155.927 446.64C156.421 446.351 156.977 446.206 157.593 446.206H157.775C158.4 446.206 158.955 446.351 159.441 446.64C159.926 446.929 160.309 447.345 160.589 447.886C160.869 448.418 161.009 449.057 161.009 449.804V450.042C161.009 450.779 160.869 451.419 160.589 451.96C160.309 452.501 159.921 452.917 159.427 453.206C158.941 453.495 158.391 453.64 157.775 453.64H157.593ZM157.677 452.646C158.031 452.646 158.349 452.562 158.629 452.394C158.909 452.226 159.133 451.974 159.301 451.638C159.469 451.302 159.553 450.887 159.553 450.392V449.454C159.553 448.95 159.469 448.535 159.301 448.208C159.133 447.872 158.909 447.62 158.629 447.452C158.349 447.284 158.031 447.2 157.677 447.2C157.331 447.2 157.019 447.284 156.739 447.452C156.459 447.62 156.235 447.872 156.067 448.208C155.899 448.535 155.815 448.95 155.815 449.454V450.392C155.815 450.887 155.899 451.302 156.067 451.638C156.235 451.974 156.459 452.226 156.739 452.394C157.019 452.562 157.331 452.646 157.677 452.646ZM162.911 453.5V446.346H163.919L164.115 447.396C164.376 447.004 164.712 446.71 165.123 446.514C165.543 446.309 165.995 446.206 166.481 446.206C166.975 446.206 167.409 446.299 167.783 446.486C168.165 446.673 168.464 446.953 168.679 447.326C168.893 447.69 169.001 448.147 169.001 448.698V453.5H167.601V448.936C167.601 448.348 167.465 447.928 167.195 447.676C166.924 447.415 166.541 447.284 166.047 447.284C165.729 447.284 165.435 447.363 165.165 447.522C164.903 447.681 164.693 447.895 164.535 448.166C164.385 448.427 164.311 448.731 164.311 449.076V453.5H162.911ZM173.268 453.64C172.923 453.64 172.61 453.584 172.33 453.472C172.06 453.36 171.845 453.183 171.686 452.94C171.537 452.688 171.462 452.357 171.462 451.946V447.438H170.678V446.346H171.504L171.994 444.064H172.862V446.346H174.528V447.438H172.862V451.694C172.862 452.105 172.946 452.366 173.114 452.478C173.282 452.59 173.464 452.646 173.66 452.646C173.763 452.646 173.903 452.623 174.08 452.576C174.267 452.529 174.416 452.483 174.528 452.436V453.374C174.426 453.43 174.3 453.477 174.15 453.514C174.01 453.561 173.861 453.593 173.702 453.612C173.553 453.631 173.408 453.64 173.268 453.64ZM176.364 453.5V443.42H177.764V447.298C178.016 446.934 178.338 446.663 178.73 446.486C179.131 446.299 179.542 446.206 179.962 446.206C180.447 446.206 180.876 446.299 181.25 446.486C181.623 446.673 181.917 446.953 182.132 447.326C182.356 447.69 182.468 448.147 182.468 448.698V453.5H181.068V448.936C181.068 448.348 180.928 447.928 180.648 447.676C180.377 447.415 179.994 447.284 179.5 447.284C179.182 447.284 178.888 447.363 178.618 447.522C178.356 447.681 178.146 447.895 177.988 448.166C177.838 448.427 177.764 448.731 177.764 449.076V453.5H176.364Z" fill="#38E7B2"/>
<path d="M63.136 364.5V353.524H65.376L68.928 358.772L69.488 359.748L69.552 359.716V353.524H72V364.5H69.696L66.032 359.076L65.648 358.356L65.584 358.372V364.5H63.136ZM77.7821 364.66C76.9821 364.66 76.2728 364.505 75.6541 364.196C75.0461 363.876 74.5661 363.417 74.2141 362.82C73.8728 362.212 73.7021 361.481 73.7021 360.628V360.196C73.7021 359.332 73.8781 358.601 74.2301 358.004C74.5928 357.396 75.0835 356.937 75.7021 356.628C76.3208 356.319 77.0301 356.164 77.8301 356.164H78.1341C78.9021 356.164 79.5635 356.313 80.1181 356.612C80.6728 356.911 81.0995 357.332 81.3981 357.876C81.6968 358.409 81.8461 359.028 81.8461 359.732V360.74H76.3741C76.3741 361.188 76.4221 361.588 76.5181 361.94C76.6248 362.292 76.7901 362.569 77.0141 362.772C77.2488 362.964 77.5528 363.06 77.9261 363.06C78.2568 363.06 78.5341 362.996 78.7581 362.868C78.9928 362.74 79.1741 362.559 79.3021 362.324C79.4301 362.079 79.4941 361.785 79.4941 361.444H81.8301C81.8301 362.063 81.6648 362.617 81.3341 363.108C81.0141 363.588 80.5661 363.967 79.9901 364.244C79.4141 364.521 78.7421 364.66 77.9741 364.66H77.7821ZM76.3741 359.524H79.3661C79.3661 358.916 79.2328 358.473 78.9661 358.196C78.6995 357.908 78.3475 357.764 77.9101 357.764C77.4728 357.764 77.1101 357.913 76.8221 358.212C76.5448 358.511 76.3955 358.948 76.3741 359.524ZM85.14 364.5L82.676 356.324H85.3L86.596 361.156H86.692L88.052 356.324H90.612L91.956 361.156H92.068L93.364 356.324H95.796L93.332 364.5H90.564L89.3 360.052H89.204L87.956 364.5H85.14ZM104.257 364.66C103.468 364.66 102.742 364.543 102.081 364.308C101.42 364.073 100.886 363.705 100.481 363.204C100.086 362.703 99.8889 362.047 99.8889 361.236C99.8889 361.183 99.8889 361.129 99.8889 361.076C99.8889 361.012 99.8942 360.948 99.9049 360.884H102.369C102.358 360.927 102.353 360.969 102.353 361.012C102.353 361.044 102.353 361.087 102.353 361.14C102.353 361.428 102.422 361.684 102.561 361.908C102.71 362.121 102.924 362.292 103.201 362.42C103.489 362.537 103.852 362.596 104.289 362.596C104.758 362.596 105.137 362.553 105.425 362.468C105.713 362.383 105.921 362.255 106.049 362.084C106.177 361.903 106.241 361.684 106.241 361.428C106.241 361.14 106.129 360.911 105.905 360.74C105.692 360.569 105.404 360.431 105.041 360.324C104.678 360.217 104.278 360.116 103.841 360.02C103.404 359.924 102.966 359.807 102.529 359.668C102.102 359.519 101.708 359.327 101.345 359.092C100.982 358.857 100.689 358.548 100.465 358.164C100.241 357.769 100.129 357.273 100.129 356.676C100.129 355.94 100.332 355.327 100.737 354.836C101.142 354.345 101.676 353.977 102.337 353.732C102.998 353.487 103.729 353.364 104.529 353.364C105.308 353.364 106.012 353.476 106.641 353.7C107.281 353.924 107.788 354.276 108.161 354.756C108.545 355.225 108.737 355.833 108.737 356.58V356.788H106.305V356.644C106.305 356.377 106.236 356.148 106.097 355.956C105.969 355.764 105.772 355.615 105.505 355.508C105.249 355.401 104.934 355.348 104.561 355.348C104.198 355.348 103.884 355.385 103.617 355.46C103.361 355.535 103.164 355.647 103.025 355.796C102.886 355.935 102.817 356.121 102.817 356.356C102.817 356.655 102.929 356.889 103.153 357.06C103.377 357.231 103.67 357.369 104.033 357.476C104.396 357.572 104.796 357.668 105.233 357.764C105.681 357.86 106.124 357.977 106.561 358.116C106.998 358.244 107.398 358.425 107.761 358.66C108.134 358.895 108.428 359.204 108.641 359.588C108.865 359.961 108.977 360.436 108.977 361.012C108.977 361.887 108.769 362.591 108.353 363.124C107.948 363.657 107.388 364.047 106.673 364.292C105.958 364.537 105.153 364.66 104.257 364.66ZM113.209 364.66C112.377 364.66 111.721 364.431 111.241 363.972C110.772 363.503 110.537 362.836 110.537 361.972V356.324H113.049V361.444C113.049 361.903 113.145 362.249 113.337 362.484C113.54 362.708 113.839 362.82 114.233 362.82C114.489 362.82 114.719 362.761 114.921 362.644C115.135 362.516 115.3 362.345 115.417 362.132C115.545 361.908 115.609 361.668 115.609 361.412V356.324H118.121V362.484C118.121 362.687 118.169 362.836 118.265 362.932C118.372 363.017 118.484 363.06 118.601 363.06C118.708 363.06 118.815 363.044 118.921 363.012C119.028 362.969 119.129 362.927 119.225 362.884V364.308C119.087 364.415 118.9 364.5 118.665 364.564C118.431 364.628 118.137 364.66 117.785 364.66C117.369 364.66 117.028 364.607 116.761 364.5C116.495 364.383 116.287 364.223 116.137 364.02C115.988 363.817 115.876 363.588 115.801 363.332C115.535 363.748 115.172 364.073 114.713 364.308C114.255 364.543 113.753 364.66 113.209 364.66ZM125.097 364.66C123.913 364.66 123.007 364.191 122.377 363.252L121.513 364.5H120.601V352.98H123.113V357.252C123.359 356.932 123.668 356.671 124.041 356.468C124.415 356.265 124.873 356.164 125.417 356.164C125.993 356.164 126.521 356.303 127.001 356.58C127.492 356.847 127.881 357.273 128.169 357.86C128.457 358.436 128.601 359.183 128.601 360.1V360.452C128.601 361.401 128.436 362.191 128.105 362.82C127.785 363.439 127.359 363.903 126.825 364.212C126.303 364.511 125.727 364.66 125.097 364.66ZM124.537 363.06C124.804 363.06 125.039 362.991 125.241 362.852C125.455 362.713 125.62 362.511 125.737 362.244C125.865 361.977 125.929 361.647 125.929 361.252V359.524C125.929 359.161 125.871 358.852 125.753 358.596C125.636 358.34 125.476 358.148 125.273 358.02C125.071 357.881 124.836 357.812 124.569 357.812C124.303 357.812 124.057 357.881 123.833 358.02C123.62 358.148 123.444 358.34 123.305 358.596C123.177 358.852 123.113 359.167 123.113 359.54V361.268C123.113 361.663 123.177 361.993 123.305 362.26C123.433 362.527 123.604 362.729 123.817 362.868C124.041 362.996 124.281 363.06 124.537 363.06ZM133.203 364.66C132.712 364.66 132.259 364.601 131.843 364.484C131.427 364.367 131.059 364.201 130.739 363.988C130.429 363.764 130.184 363.503 130.003 363.204C129.832 362.895 129.747 362.553 129.747 362.18C129.747 362.127 129.747 362.079 129.747 362.036C129.747 361.993 129.752 361.94 129.763 361.876H131.859C131.848 361.897 131.843 361.919 131.843 361.94C131.843 361.961 131.843 361.983 131.843 362.004C131.843 362.26 131.928 362.468 132.099 362.628C132.269 362.777 132.488 362.889 132.755 362.964C133.021 363.028 133.299 363.06 133.587 363.06C133.8 363.06 134.029 363.033 134.275 362.98C134.531 362.927 134.749 362.841 134.931 362.724C135.112 362.607 135.203 362.447 135.203 362.244C135.203 362.02 135.107 361.849 134.915 361.732C134.733 361.615 134.488 361.524 134.179 361.46C133.869 361.396 133.528 361.337 133.155 361.284C132.792 361.22 132.424 361.145 132.051 361.06C131.677 360.964 131.336 360.831 131.027 360.66C130.717 360.479 130.467 360.239 130.275 359.94C130.093 359.641 130.003 359.252 130.003 358.772C130.003 358.335 130.099 357.951 130.291 357.62C130.493 357.289 130.765 357.017 131.107 356.804C131.459 356.591 131.848 356.431 132.275 356.324C132.701 356.217 133.139 356.164 133.587 356.164H133.955C134.36 356.164 134.76 356.217 135.155 356.324C135.549 356.42 135.907 356.564 136.227 356.756C136.547 356.948 136.803 357.183 136.995 357.46C137.187 357.727 137.283 358.025 137.283 358.356C137.283 358.42 137.277 358.489 137.267 358.564C137.267 358.628 137.267 358.681 137.267 358.724H135.139V358.596C135.139 358.489 135.107 358.383 135.043 358.276C134.979 358.169 134.883 358.079 134.755 358.004C134.627 357.919 134.472 357.855 134.291 357.812C134.12 357.759 133.917 357.732 133.683 357.732C133.491 357.732 133.304 357.753 133.123 357.796C132.941 357.828 132.781 357.876 132.643 357.94C132.515 358.004 132.413 358.084 132.339 358.18C132.264 358.265 132.227 358.361 132.227 358.468C132.227 358.681 132.317 358.841 132.499 358.948C132.691 359.055 132.941 359.14 133.251 359.204C133.571 359.257 133.917 359.311 134.291 359.364C134.664 359.407 135.037 359.476 135.411 359.572C135.784 359.657 136.125 359.791 136.435 359.972C136.744 360.143 136.995 360.383 137.187 360.692C137.379 360.991 137.475 361.385 137.475 361.876C137.475 362.399 137.373 362.841 137.171 363.204C136.968 363.556 136.691 363.839 136.339 364.052C135.997 364.265 135.608 364.42 135.171 364.516C134.733 364.612 134.28 364.66 133.811 364.66H133.203ZM142.463 364.66C141.77 364.66 141.135 364.489 140.559 364.148C139.983 363.796 139.524 363.321 139.183 362.724C138.842 362.116 138.671 361.433 138.671 360.676V360.132C138.671 359.556 138.772 359.028 138.975 358.548C139.178 358.068 139.455 357.652 139.807 357.3C140.17 356.937 140.58 356.66 141.039 356.468C141.508 356.265 142.01 356.164 142.543 356.164H142.895C143.652 356.164 144.298 356.308 144.831 356.596C145.375 356.884 145.791 357.284 146.079 357.796C146.367 358.308 146.511 358.905 146.511 359.588H144.335C144.335 359.183 144.276 358.847 144.159 358.58C144.042 358.303 143.876 358.1 143.663 357.972C143.45 357.833 143.183 357.764 142.863 357.764C142.436 357.764 142.074 357.913 141.775 358.212C141.487 358.5 141.343 358.911 141.343 359.444V361.348C141.343 361.881 141.476 362.303 141.743 362.612C142.02 362.911 142.404 363.06 142.895 363.06C143.247 363.06 143.535 363.001 143.759 362.884C143.994 362.767 144.17 362.575 144.287 362.308C144.404 362.041 144.463 361.684 144.463 361.236H146.511C146.511 361.961 146.351 362.58 146.031 363.092C145.722 363.604 145.29 363.993 144.735 364.26C144.18 364.527 143.54 364.66 142.815 364.66H142.463ZM148.055 364.5V356.324H149.943L150.231 357.508C150.263 357.465 150.321 357.375 150.407 357.236C150.503 357.087 150.641 356.932 150.823 356.772C151.004 356.601 151.228 356.457 151.495 356.34C151.761 356.223 152.076 356.164 152.439 356.164C152.983 356.164 153.425 356.265 153.767 356.468C154.108 356.671 154.359 356.964 154.519 357.348C154.689 357.721 154.775 358.169 154.775 358.692C154.775 358.809 154.769 358.948 154.759 359.108C154.748 359.257 154.737 359.396 154.727 359.524H152.647V359.172C152.647 358.991 152.609 358.809 152.535 358.628C152.471 358.447 152.364 358.303 152.215 358.196C152.065 358.079 151.863 358.02 151.607 358.02C151.415 358.02 151.249 358.057 151.111 358.132C150.972 358.207 150.86 358.308 150.775 358.436C150.689 358.553 150.625 358.687 150.583 358.836C150.551 358.975 150.535 359.119 150.535 359.268V364.5H148.055ZM156.134 364.5V356.324H158.646V364.5H156.134ZM156.102 354.868V352.98H158.662V354.868H156.102ZM165.347 364.66C164.163 364.66 163.257 364.191 162.627 363.252L161.763 364.5H160.851V352.98H163.363V357.252C163.609 356.932 163.918 356.671 164.291 356.468C164.665 356.265 165.123 356.164 165.667 356.164C166.243 356.164 166.771 356.303 167.251 356.58C167.742 356.847 168.131 357.273 168.419 357.86C168.707 358.436 168.851 359.183 168.851 360.1V360.452C168.851 361.401 168.686 362.191 168.355 362.82C168.035 363.439 167.609 363.903 167.075 364.212C166.553 364.511 165.977 364.66 165.347 364.66ZM164.787 363.06C165.054 363.06 165.289 362.991 165.491 362.852C165.705 362.713 165.87 362.511 165.987 362.244C166.115 361.977 166.179 361.647 166.179 361.252V359.524C166.179 359.161 166.121 358.852 166.003 358.596C165.886 358.34 165.726 358.148 165.523 358.02C165.321 357.881 165.086 357.812 164.819 357.812C164.553 357.812 164.307 357.881 164.083 358.02C163.87 358.148 163.694 358.34 163.555 358.596C163.427 358.852 163.363 359.167 163.363 359.54V361.268C163.363 361.663 163.427 361.993 163.555 362.26C163.683 362.527 163.854 362.729 164.067 362.868C164.291 362.996 164.531 363.06 164.787 363.06ZM174.173 364.66C173.373 364.66 172.663 364.505 172.045 364.196C171.437 363.876 170.957 363.417 170.605 362.82C170.263 362.212 170.093 361.481 170.093 360.628V360.196C170.093 359.332 170.269 358.601 170.621 358.004C170.983 357.396 171.474 356.937 172.093 356.628C172.711 356.319 173.421 356.164 174.221 356.164H174.525C175.293 356.164 175.954 356.313 176.509 356.612C177.063 356.911 177.49 357.332 177.789 357.876C178.087 358.409 178.237 359.028 178.237 359.732V360.74H172.765C172.765 361.188 172.813 361.588 172.909 361.94C173.015 362.292 173.181 362.569 173.405 362.772C173.639 362.964 173.943 363.06 174.317 363.06C174.647 363.06 174.925 362.996 175.149 362.868C175.383 362.74 175.565 362.559 175.693 362.324C175.821 362.079 175.885 361.785 175.885 361.444H178.221C178.221 362.063 178.055 362.617 177.725 363.108C177.405 363.588 176.957 363.967 176.381 364.244C175.805 364.521 175.133 364.66 174.365 364.66H174.173ZM172.765 359.524H175.757C175.757 358.916 175.623 358.473 175.357 358.196C175.09 357.908 174.738 357.764 174.301 357.764C173.863 357.764 173.501 357.913 173.213 358.212C172.935 358.511 172.786 358.948 172.765 359.524ZM179.883 364.5V356.324H181.771L182.059 357.508C182.091 357.465 182.149 357.375 182.235 357.236C182.331 357.087 182.469 356.932 182.651 356.772C182.832 356.601 183.056 356.457 183.323 356.34C183.589 356.223 183.904 356.164 184.267 356.164C184.811 356.164 185.253 356.265 185.595 356.468C185.936 356.671 186.187 356.964 186.347 357.348C186.517 357.721 186.603 358.169 186.603 358.692C186.603 358.809 186.597 358.948 186.587 359.108C186.576 359.257 186.565 359.396 186.555 359.524H184.475V359.172C184.475 358.991 184.437 358.809 184.363 358.628C184.299 358.447 184.192 358.303 184.043 358.196C183.893 358.079 183.691 358.02 183.435 358.02C183.243 358.02 183.077 358.057 182.939 358.132C182.8 358.207 182.688 358.308 182.603 358.436C182.517 358.553 182.453 358.687 182.411 358.836C182.379 358.975 182.363 359.119 182.363 359.268V364.5H179.883ZM190.89 364.66C190.4 364.66 189.946 364.601 189.53 364.484C189.114 364.367 188.746 364.201 188.426 363.988C188.117 363.764 187.872 363.503 187.69 363.204C187.52 362.895 187.434 362.553 187.434 362.18C187.434 362.127 187.434 362.079 187.434 362.036C187.434 361.993 187.44 361.94 187.45 361.876H189.546C189.536 361.897 189.53 361.919 189.53 361.94C189.53 361.961 189.53 361.983 189.53 362.004C189.53 362.26 189.616 362.468 189.786 362.628C189.957 362.777 190.176 362.889 190.442 362.964C190.709 363.028 190.986 363.06 191.274 363.06C191.488 363.06 191.717 363.033 191.962 362.98C192.218 362.927 192.437 362.841 192.618 362.724C192.8 362.607 192.89 362.447 192.89 362.244C192.89 362.02 192.794 361.849 192.602 361.732C192.421 361.615 192.176 361.524 191.866 361.46C191.557 361.396 191.216 361.337 190.842 361.284C190.48 361.22 190.112 361.145 189.738 361.06C189.365 360.964 189.024 360.831 188.714 360.66C188.405 360.479 188.154 360.239 187.962 359.94C187.781 359.641 187.69 359.252 187.69 358.772C187.69 358.335 187.786 357.951 187.978 357.62C188.181 357.289 188.453 357.017 188.794 356.804C189.146 356.591 189.536 356.431 189.962 356.324C190.389 356.217 190.826 356.164 191.274 356.164H191.642C192.048 356.164 192.448 356.217 192.842 356.324C193.237 356.42 193.594 356.564 193.914 356.756C194.234 356.948 194.49 357.183 194.682 357.46C194.874 357.727 194.97 358.025 194.97 358.356C194.97 358.42 194.965 358.489 194.954 358.564C194.954 358.628 194.954 358.681 194.954 358.724H192.826V358.596C192.826 358.489 192.794 358.383 192.73 358.276C192.666 358.169 192.57 358.079 192.442 358.004C192.314 357.919 192.16 357.855 191.978 357.812C191.808 357.759 191.605 357.732 191.37 357.732C191.178 357.732 190.992 357.753 190.81 357.796C190.629 357.828 190.469 357.876 190.33 357.94C190.202 358.004 190.101 358.084 190.026 358.18C189.952 358.265 189.914 358.361 189.914 358.468C189.914 358.681 190.005 358.841 190.186 358.948C190.378 359.055 190.629 359.14 190.938 359.204C191.258 359.257 191.605 359.311 191.978 359.364C192.352 359.407 192.725 359.476 193.098 359.572C193.472 359.657 193.813 359.791 194.122 359.972C194.432 360.143 194.682 360.383 194.874 360.692C195.066 360.991 195.162 361.385 195.162 361.876C195.162 362.399 195.061 362.841 194.858 363.204C194.656 363.556 194.378 363.839 194.026 364.052C193.685 364.265 193.296 364.42 192.858 364.516C192.421 364.612 191.968 364.66 191.498 364.66H190.89Z" fill="#060C3C"/>
<path d="M69.59 422.5V416.44H63.56V413.2H69.59V407.14H72.86V413.2H78.92V416.44H72.86V422.5H69.59ZM90.4463 422.5V417.67H81.4763V414.04C81.7963 413.5 82.1463 412.85 82.5263 412.09C82.9263 411.31 83.3363 410.47 83.7563 409.57C84.1763 408.65 84.5863 407.71 84.9863 406.75C85.3863 405.79 85.7463 404.87 86.0663 403.99C86.3863 403.11 86.6463 402.32 86.8463 401.62H91.1363C90.9763 402.36 90.7163 403.19 90.3563 404.11C89.9963 405.01 89.5863 405.95 89.1263 406.93C88.6663 407.91 88.1763 408.86 87.6563 409.78C87.1363 410.68 86.6263 411.51 86.1263 412.27C85.6463 413.01 85.1963 413.61 84.7763 414.07H90.4463V409.72C90.6463 409.42 90.8763 409.03 91.1363 408.55C91.3963 408.05 91.6463 407.53 91.8863 406.99C92.1463 406.43 92.3763 405.89 92.5763 405.37C92.7763 404.85 92.9263 404.42 93.0263 404.08H94.9763V414.07H97.7963V417.67H94.9763V422.5H90.4463ZM100.383 422.5V421.45C100.383 420.25 100.603 419.21 101.043 418.33C101.483 417.43 102.183 416.63 103.143 415.93L108.933 411.67C109.553 411.21 110.033 410.69 110.373 410.11C110.713 409.51 110.883 408.86 110.883 408.16C110.883 407.3 110.633 406.63 110.133 406.15C109.633 405.65 108.873 405.4 107.853 405.4C107.253 405.4 106.723 405.53 106.263 405.79C105.803 406.03 105.433 406.38 105.153 406.84C104.893 407.28 104.763 407.78 104.763 408.34C104.763 408.48 104.763 408.62 104.763 408.76C104.763 408.88 104.773 409 104.793 409.12H100.503C100.503 409.02 100.503 408.93 100.503 408.85C100.503 408.75 100.503 408.66 100.503 408.58C100.503 407.24 100.803 406.05 101.403 405.01C102.023 403.97 102.883 403.15 103.983 402.55C105.103 401.93 106.423 401.62 107.943 401.62H108.633C110.093 401.62 111.343 401.89 112.383 402.43C113.443 402.97 114.253 403.72 114.813 404.68C115.393 405.64 115.683 406.76 115.683 408.04C115.683 409.06 115.503 409.96 115.143 410.74C114.803 411.52 114.303 412.23 113.643 412.87C113.003 413.51 112.253 414.13 111.393 414.73L107.643 417.37C107.503 417.47 107.353 417.58 107.193 417.7C107.053 417.82 106.923 417.95 106.803 418.09C106.703 418.21 106.613 418.33 106.533 418.45H115.743V422.5H100.383ZM126.13 422.8C124.79 422.8 123.57 422.48 122.47 421.84C121.37 421.2 120.49 420.33 119.83 419.23C119.19 418.13 118.87 416.9 118.87 415.54V408.88C118.87 407.5 119.19 406.26 119.83 405.16C120.49 404.06 121.37 403.2 122.47 402.58C123.57 401.94 124.79 401.62 126.13 401.62H127.15C128.51 401.62 129.73 401.94 130.81 402.58C131.91 403.2 132.78 404.06 133.42 405.16C134.06 406.26 134.38 407.5 134.38 408.88V415.54C134.38 416.9 134.06 418.13 133.42 419.23C132.78 420.33 131.91 421.2 130.81 421.84C129.73 422.48 128.51 422.8 127.15 422.8H126.13ZM126.61 419.26C127.19 419.26 127.7 419.12 128.14 418.84C128.6 418.56 128.96 418.19 129.22 417.73C129.5 417.25 129.64 416.72 129.64 416.14V408.25C129.64 407.67 129.5 407.15 129.22 406.69C128.96 406.21 128.6 405.83 128.14 405.55C127.7 405.27 127.2 405.13 126.64 405.13C126.06 405.13 125.54 405.27 125.08 405.55C124.64 405.83 124.28 406.21 124 406.69C123.74 407.15 123.61 407.67 123.61 408.25V416.14C123.61 416.72 123.74 417.25 124 417.73C124.28 418.19 124.64 418.56 125.08 418.84C125.54 419.12 126.05 419.26 126.61 419.26ZM138.257 422.5V418.78H143.177V407.08H138.257V404.32C139.057 404.26 139.917 404.1 140.837 403.84C141.777 403.58 142.707 403.26 143.627 402.88C144.567 402.48 145.437 402.06 146.237 401.62H147.857V418.78H152.657V422.5H138.257Z" fill="#060C3C"/>
<g filter="url(#filter2_d_1_8039)">
<g filter="url(#filter3_d_1_8039)">
<rect x="458.912" y="328.484" width="76" height="76" rx="6" fill="white"/>
</g>
<path d="M553.18 339.889L506.1 384.485L489.814 356.162L436.256 393.536M553.18 339.889L535.592 339.895M553.18 339.889L551.733 357.179" stroke="#FFD43D" stroke-width="3" stroke-linecap="round" stroke-linejoin="round"/>
</g>
<g filter="url(#filter4_d_1_8039)">
<rect x="38" y="116" width="186" height="180" rx="6" fill="white"/>
</g>
<path d="M104.782 255.323C104.38 254.892 103.62 254.892 103.218 255.323L99.2255 259.586C98.6938 260.154 99.162 261 100.008 261L107.992 261C108.838 261 109.306 260.154 108.774 259.586L104.782 255.323Z" fill="#38E7B2"/>
<path d="M119.246 263V261.838H121.78V255.02H119.246V254.166C119.554 254.138 119.895 254.087 120.268 254.012C120.641 253.928 121.033 253.825 121.444 253.704C121.864 253.573 122.275 253.424 122.676 253.256H123.194V261.838H125.7V263H119.246ZM130.869 263.14C130.216 263.14 129.637 263.037 129.133 262.832C128.629 262.627 128.237 262.323 127.957 261.922C127.677 261.511 127.537 261.007 127.537 260.41C127.537 259.794 127.687 259.304 127.985 258.94C128.284 258.567 128.671 258.282 129.147 258.086V258.03C128.774 257.843 128.466 257.587 128.223 257.26C127.981 256.924 127.859 256.476 127.859 255.916C127.859 255.347 127.995 254.866 128.265 254.474C128.536 254.082 128.905 253.783 129.371 253.578C129.847 253.363 130.379 253.256 130.967 253.256C131.565 253.256 132.087 253.363 132.535 253.578C132.993 253.783 133.347 254.082 133.599 254.474C133.851 254.866 133.977 255.347 133.977 255.916C133.977 256.289 133.921 256.611 133.809 256.882C133.697 257.153 133.543 257.381 133.347 257.568C133.161 257.755 132.941 257.909 132.689 258.03V258.086C133.175 258.319 133.567 258.609 133.865 258.954C134.164 259.29 134.313 259.775 134.313 260.41C134.313 260.97 134.173 261.455 133.893 261.866C133.623 262.277 133.231 262.594 132.717 262.818C132.213 263.033 131.597 263.14 130.869 263.14ZM130.925 262.076C131.588 262.076 132.078 261.917 132.395 261.6C132.722 261.283 132.885 260.853 132.885 260.312C132.885 259.761 132.713 259.332 132.367 259.024C132.022 258.716 131.541 258.562 130.925 258.562C130.309 258.562 129.829 258.721 129.483 259.038C129.147 259.355 128.979 259.78 128.979 260.312C128.979 260.853 129.138 261.283 129.455 261.6C129.773 261.917 130.263 262.076 130.925 262.076ZM130.911 257.61C131.406 257.61 131.817 257.47 132.143 257.19C132.479 256.901 132.647 256.49 132.647 255.958C132.647 255.426 132.489 255.02 132.171 254.74C131.863 254.451 131.443 254.306 130.911 254.306C130.379 254.306 129.959 254.451 129.651 254.74C129.343 255.029 129.189 255.435 129.189 255.958C129.189 256.49 129.353 256.901 129.679 257.19C130.015 257.47 130.426 257.61 130.911 257.61ZM136.277 264.932V264.764C136.519 264.484 136.701 264.199 136.823 263.91C136.944 263.621 137.005 263.317 137.005 263H136.333V261.194H137.859V262.748C137.859 263.149 137.793 263.537 137.663 263.91C137.541 264.283 137.345 264.624 137.075 264.932H136.277ZM139.705 263V262.566C139.705 261.978 139.831 261.474 140.083 261.054C140.335 260.634 140.699 260.256 141.175 259.92L143.849 258.072C144.157 257.857 144.418 257.596 144.633 257.288C144.848 256.98 144.955 256.611 144.955 256.182C144.955 255.631 144.792 255.202 144.465 254.894C144.148 254.586 143.681 254.432 143.065 254.432C142.692 254.432 142.356 254.516 142.057 254.684C141.768 254.852 141.539 255.081 141.371 255.37C141.203 255.659 141.119 255.986 141.119 256.35C141.119 256.415 141.119 256.476 141.119 256.532C141.119 256.588 141.124 256.644 141.133 256.7H139.803C139.803 256.635 139.803 256.588 139.803 256.56C139.803 256.523 139.803 256.485 139.803 256.448C139.803 255.823 139.943 255.272 140.223 254.796C140.512 254.311 140.904 253.933 141.399 253.662C141.903 253.391 142.477 253.256 143.121 253.256H143.289C143.942 253.256 144.498 253.377 144.955 253.62C145.422 253.863 145.776 254.199 146.019 254.628C146.271 255.048 146.397 255.547 146.397 256.126C146.397 256.611 146.313 257.036 146.145 257.4C145.986 257.764 145.767 258.081 145.487 258.352C145.216 258.623 144.908 258.875 144.563 259.108L142.071 260.83C141.931 260.923 141.81 261.031 141.707 261.152C141.604 261.264 141.525 261.376 141.469 261.488C141.422 261.591 141.39 261.684 141.371 261.768H146.439V263H139.705ZM148.654 263V261.838H151.188V255.02H148.654V254.166C148.962 254.138 149.303 254.087 149.676 254.012C150.05 253.928 150.442 253.825 150.852 253.704C151.272 253.573 151.683 253.424 152.084 253.256H152.602V261.838H155.108V263H148.654ZM157.547 263L163.385 253.396H164.379L158.555 263H157.547ZM158.149 258.296C157.823 258.296 157.533 258.221 157.281 258.072C157.029 257.913 156.829 257.703 156.679 257.442C156.539 257.181 156.469 256.896 156.469 256.588V255.09C156.469 254.782 156.539 254.502 156.679 254.25C156.829 253.989 157.029 253.783 157.281 253.634C157.533 253.475 157.823 253.396 158.149 253.396H158.275C158.621 253.396 158.915 253.475 159.157 253.634C159.409 253.783 159.605 253.989 159.745 254.25C159.895 254.502 159.969 254.782 159.969 255.09V256.588C159.969 256.896 159.895 257.181 159.745 257.442C159.605 257.703 159.409 257.913 159.157 258.072C158.915 258.221 158.625 258.296 158.289 258.296H158.149ZM158.219 257.526C158.49 257.526 158.695 257.447 158.835 257.288C158.975 257.129 159.045 256.929 159.045 256.686V254.992C159.045 254.759 158.975 254.563 158.835 254.404C158.695 254.245 158.49 254.166 158.219 254.166C157.967 254.166 157.767 254.245 157.617 254.404C157.468 254.563 157.393 254.759 157.393 254.992V256.686C157.393 256.929 157.468 257.129 157.617 257.288C157.767 257.447 157.967 257.526 158.219 257.526ZM163.609 263.014C163.283 263.014 162.993 262.939 162.741 262.79C162.489 262.631 162.289 262.421 162.139 262.16C161.999 261.899 161.929 261.614 161.929 261.306V259.808C161.929 259.5 161.999 259.22 162.139 258.968C162.289 258.707 162.489 258.501 162.741 258.352C162.993 258.193 163.283 258.114 163.609 258.114H163.735C164.081 258.114 164.375 258.193 164.617 258.352C164.869 258.501 165.065 258.707 165.205 258.968C165.355 259.22 165.429 259.5 165.429 259.808V261.306C165.429 261.614 165.355 261.899 165.205 262.16C165.065 262.421 164.869 262.631 164.617 262.79C164.375 262.939 164.085 263.014 163.749 263.014H163.609ZM163.679 262.244C163.95 262.244 164.155 262.165 164.295 262.006C164.435 261.838 164.505 261.637 164.505 261.404V259.71C164.505 259.477 164.435 259.281 164.295 259.122C164.155 258.963 163.95 258.884 163.679 258.884C163.427 258.884 163.227 258.963 163.077 259.122C162.928 259.281 162.853 259.477 162.853 259.71V261.404C162.853 261.637 162.928 261.838 163.077 262.006C163.227 262.165 163.427 262.244 163.679 262.244Z" fill="#38E7B2"/>
<path d="M84.6513 224V213.024H91.9153L91.7073 214.368H86.3473V217.728H91.1953V219.072H86.3473V222.656H91.8033L92.0273 224H84.6513ZM93.9749 224V215.824H95.1269L95.3509 217.024C95.6496 216.576 96.0336 216.24 96.5029 216.016C96.9829 215.781 97.5003 215.664 98.0549 215.664C98.6203 215.664 99.1163 215.771 99.5429 215.984C99.9803 216.197 100.322 216.517 100.567 216.944C100.812 217.36 100.935 217.883 100.935 218.512V224H99.3349V218.784C99.3349 218.112 99.1803 217.632 98.8709 217.344C98.5616 217.045 98.1243 216.896 97.5589 216.896C97.1963 216.896 96.8603 216.987 96.5509 217.168C96.2523 217.349 96.0123 217.595 95.8309 217.904C95.6603 218.203 95.5749 218.549 95.5749 218.944V224H93.9749ZM104.867 227.008C104.493 227.008 104.152 226.917 103.843 226.736C103.544 226.555 103.304 226.309 103.123 226C102.941 225.701 102.851 225.376 102.851 225.024C102.851 224.64 102.957 224.277 103.171 223.936C103.384 223.595 103.677 223.344 104.051 223.184C103.816 223.035 103.629 222.843 103.491 222.608C103.363 222.373 103.299 222.123 103.299 221.856C103.299 221.461 103.421 221.131 103.667 220.864C103.912 220.587 104.232 220.379 104.627 220.24C104.296 220.016 104.029 219.755 103.827 219.456C103.624 219.147 103.523 218.784 103.523 218.368C103.523 217.909 103.64 217.477 103.875 217.072C104.12 216.656 104.488 216.32 104.979 216.064C105.469 215.797 106.083 215.664 106.819 215.664C107.16 215.664 107.469 215.685 107.747 215.728C108.035 215.771 108.291 215.84 108.515 215.936C108.92 215.765 109.235 215.541 109.459 215.264C109.683 214.987 109.811 214.683 109.843 214.352H111.155C111.155 214.693 111.085 215.008 110.947 215.296C110.819 215.584 110.632 215.824 110.387 216.016C110.141 216.208 109.848 216.341 109.507 216.416L109.491 216.464C109.736 216.677 109.928 216.928 110.067 217.216C110.216 217.504 110.291 217.824 110.291 218.176C110.291 218.645 110.168 219.083 109.923 219.488C109.677 219.883 109.32 220.203 108.851 220.448C108.392 220.683 107.821 220.8 107.139 220.8H105.891C105.56 220.8 105.293 220.88 105.091 221.04C104.888 221.2 104.787 221.413 104.787 221.68C104.787 221.936 104.883 222.144 105.075 222.304C105.277 222.464 105.549 222.544 105.891 222.544H108.979C109.651 222.544 110.179 222.752 110.563 223.168C110.957 223.573 111.155 224.075 111.155 224.672C111.155 225.099 111.048 225.488 110.835 225.84C110.632 226.203 110.344 226.485 109.971 226.688C109.608 226.901 109.181 227.008 108.691 227.008H104.867ZM105.379 225.92H108.451C108.771 225.92 109.048 225.808 109.283 225.584C109.528 225.36 109.651 225.088 109.651 224.768C109.651 224.501 109.549 224.267 109.347 224.064C109.155 223.861 108.92 223.76 108.643 223.76H105.379C105.069 223.76 104.808 223.867 104.595 224.08C104.381 224.293 104.275 224.549 104.275 224.848C104.275 225.136 104.381 225.387 104.595 225.6C104.808 225.813 105.069 225.92 105.379 225.92ZM106.899 219.808C107.485 219.808 107.944 219.653 108.275 219.344C108.605 219.035 108.771 218.667 108.771 218.24C108.771 217.813 108.605 217.445 108.275 217.136C107.944 216.816 107.485 216.656 106.899 216.656C106.312 216.656 105.853 216.816 105.523 217.136C105.203 217.445 105.043 217.813 105.043 218.24C105.043 218.667 105.203 219.035 105.523 219.344C105.853 219.653 106.312 219.808 106.899 219.808ZM114.805 224.16C114.368 224.16 113.947 224.091 113.541 223.952C113.147 223.813 112.821 223.579 112.565 223.248C112.32 222.907 112.197 222.448 112.197 221.872C112.197 221.285 112.325 220.816 112.581 220.464C112.848 220.101 113.221 219.824 113.701 219.632C114.192 219.44 114.773 219.312 115.445 219.248C116.128 219.184 116.875 219.152 117.685 219.152V218.32C117.685 217.744 117.541 217.344 117.253 217.12C116.976 216.885 116.533 216.768 115.925 216.768C115.413 216.768 114.971 216.88 114.597 217.104C114.224 217.317 114.037 217.659 114.037 218.128V218.32H112.485C112.475 218.267 112.469 218.213 112.469 218.16C112.469 218.096 112.469 218.032 112.469 217.968C112.469 217.499 112.613 217.093 112.901 216.752C113.2 216.4 113.6 216.133 114.101 215.952C114.613 215.76 115.195 215.664 115.845 215.664H116.069C117.147 215.664 117.947 215.877 118.469 216.304C119.003 216.731 119.269 217.344 119.269 218.144V222.48C119.269 222.672 119.312 222.811 119.397 222.896C119.483 222.981 119.584 223.024 119.701 223.024C119.819 223.024 119.941 223.003 120.069 222.96C120.208 222.917 120.331 222.864 120.437 222.8V223.824C120.299 223.931 120.128 224.011 119.925 224.064C119.723 224.128 119.483 224.16 119.205 224.16C118.864 224.16 118.587 224.096 118.373 223.968C118.171 223.829 118.021 223.648 117.925 223.424C117.829 223.2 117.771 222.949 117.749 222.672C117.44 223.152 117.035 223.52 116.533 223.776C116.043 224.032 115.467 224.16 114.805 224.16ZM115.445 223.024C115.819 223.024 116.176 222.944 116.517 222.784C116.859 222.613 117.136 222.357 117.349 222.016C117.573 221.675 117.685 221.248 117.685 220.736V220.128C116.885 220.128 116.197 220.171 115.621 220.256C115.045 220.331 114.603 220.48 114.293 220.704C113.995 220.928 113.845 221.275 113.845 221.744C113.845 222.192 113.979 222.517 114.245 222.72C114.512 222.923 114.912 223.024 115.445 223.024ZM123.648 227.008C123.274 227.008 122.933 226.917 122.624 226.736C122.325 226.555 122.085 226.309 121.904 226C121.722 225.701 121.632 225.376 121.632 225.024C121.632 224.64 121.738 224.277 121.952 223.936C122.165 223.595 122.458 223.344 122.832 223.184C122.597 223.035 122.41 222.843 122.272 222.608C122.144 222.373 122.08 222.123 122.08 221.856C122.08 221.461 122.202 221.131 122.448 220.864C122.693 220.587 123.013 220.379 123.408 220.24C123.077 220.016 122.81 219.755 122.608 219.456C122.405 219.147 122.304 218.784 122.304 218.368C122.304 217.909 122.421 217.477 122.656 217.072C122.901 216.656 123.269 216.32 123.76 216.064C124.25 215.797 124.864 215.664 125.6 215.664C125.941 215.664 126.25 215.685 126.528 215.728C126.816 215.771 127.072 215.84 127.296 215.936C127.701 215.765 128.016 215.541 128.24 215.264C128.464 214.987 128.592 214.683 128.624 214.352H129.936C129.936 214.693 129.866 215.008 129.728 215.296C129.6 215.584 129.413 215.824 129.168 216.016C128.922 216.208 128.629 216.341 128.288 216.416L128.272 216.464C128.517 216.677 128.709 216.928 128.848 217.216C128.997 217.504 129.072 217.824 129.072 218.176C129.072 218.645 128.949 219.083 128.704 219.488C128.458 219.883 128.101 220.203 127.632 220.448C127.173 220.683 126.602 220.8 125.92 220.8H124.672C124.341 220.8 124.074 220.88 123.872 221.04C123.669 221.2 123.568 221.413 123.568 221.68C123.568 221.936 123.664 222.144 123.856 222.304C124.058 222.464 124.33 222.544 124.672 222.544H127.76C128.432 222.544 128.96 222.752 129.344 223.168C129.738 223.573 129.936 224.075 129.936 224.672C129.936 225.099 129.829 225.488 129.616 225.84C129.413 226.203 129.125 226.485 128.752 226.688C128.389 226.901 127.962 227.008 127.472 227.008H123.648ZM124.16 225.92H127.232C127.552 225.92 127.829 225.808 128.064 225.584C128.309 225.36 128.432 225.088 128.432 224.768C128.432 224.501 128.33 224.267 128.128 224.064C127.936 223.861 127.701 223.76 127.424 223.76H124.16C123.85 223.76 123.589 223.867 123.376 224.08C123.162 224.293 123.056 224.549 123.056 224.848C123.056 225.136 123.162 225.387 123.376 225.6C123.589 225.813 123.85 225.92 124.16 225.92ZM125.68 219.808C126.266 219.808 126.725 219.653 127.056 219.344C127.386 219.035 127.552 218.667 127.552 218.24C127.552 217.813 127.386 217.445 127.056 217.136C126.725 216.816 126.266 216.656 125.68 216.656C125.093 216.656 124.634 216.816 124.304 217.136C123.984 217.445 123.824 217.813 123.824 218.24C123.824 218.667 123.984 219.035 124.304 219.344C124.634 219.653 125.093 219.808 125.68 219.808ZM134.787 224.16C134.061 224.16 133.421 224.005 132.867 223.696C132.323 223.376 131.896 222.912 131.587 222.304C131.277 221.685 131.123 220.944 131.123 220.08V219.744C131.123 218.869 131.283 218.128 131.603 217.52C131.933 216.912 132.381 216.453 132.947 216.144C133.512 215.824 134.157 215.664 134.883 215.664H135.059C135.72 215.664 136.307 215.803 136.819 216.08C137.331 216.357 137.725 216.752 138.003 217.264C138.291 217.776 138.435 218.384 138.435 219.088V220.112H132.787C132.787 220.72 132.867 221.243 133.027 221.68C133.197 222.117 133.437 222.453 133.747 222.688C134.067 222.912 134.456 223.024 134.915 223.024C135.299 223.024 135.64 222.949 135.939 222.8C136.237 222.651 136.477 222.421 136.659 222.112C136.84 221.803 136.931 221.419 136.931 220.96H138.435C138.435 221.611 138.28 222.176 137.971 222.656C137.661 223.136 137.24 223.509 136.707 223.776C136.184 224.032 135.592 224.16 134.931 224.16H134.787ZM132.803 219.152H136.867C136.867 218.352 136.691 217.76 136.339 217.376C135.997 216.992 135.517 216.8 134.899 216.8C134.333 216.8 133.848 216.997 133.443 217.392C133.048 217.787 132.835 218.373 132.803 219.152ZM140.631 224V215.824H141.815L142.055 217.024C142.322 216.597 142.653 216.267 143.047 216.032C143.442 215.787 143.895 215.664 144.407 215.664C144.941 215.664 145.415 215.771 145.831 215.984C146.247 216.197 146.573 216.539 146.807 217.008C147.042 216.613 147.367 216.293 147.783 216.048C148.21 215.792 148.711 215.664 149.287 215.664C149.81 215.664 150.274 215.771 150.679 215.984C151.085 216.197 151.399 216.517 151.623 216.944C151.858 217.36 151.975 217.883 151.975 218.512V224H150.391V218.864C150.391 218.181 150.253 217.685 149.975 217.376C149.709 217.067 149.325 216.912 148.823 216.912C148.493 216.912 148.194 216.997 147.927 217.168C147.671 217.339 147.469 217.579 147.319 217.888C147.181 218.197 147.111 218.544 147.111 218.928V224H145.511V218.864C145.511 218.181 145.373 217.685 145.095 217.376C144.829 217.067 144.439 216.912 143.927 216.912C143.597 216.912 143.303 216.997 143.047 217.168C142.791 217.339 142.589 217.579 142.439 217.888C142.301 218.197 142.231 218.544 142.231 218.928V224H140.631ZM157.849 224.16C157.124 224.16 156.484 224.005 155.929 223.696C155.385 223.376 154.958 222.912 154.649 222.304C154.34 221.685 154.185 220.944 154.185 220.08V219.744C154.185 218.869 154.345 218.128 154.665 217.52C154.996 216.912 155.444 216.453 156.009 216.144C156.574 215.824 157.22 215.664 157.945 215.664H158.121C158.782 215.664 159.369 215.803 159.881 216.08C160.393 216.357 160.788 216.752 161.065 217.264C161.353 217.776 161.497 218.384 161.497 219.088V220.112H155.849C155.849 220.72 155.929 221.243 156.089 221.68C156.26 222.117 156.5 222.453 156.809 222.688C157.129 222.912 157.518 223.024 157.977 223.024C158.361 223.024 158.702 222.949 159.001 222.8C159.3 222.651 159.54 222.421 159.721 222.112C159.902 221.803 159.993 221.419 159.993 220.96H161.497C161.497 221.611 161.342 222.176 161.033 222.656C160.724 223.136 160.302 223.509 159.769 223.776C159.246 224.032 158.654 224.16 157.993 224.16H157.849ZM155.865 219.152H159.929C159.929 218.352 159.753 217.76 159.401 217.376C159.06 216.992 158.58 216.8 157.961 216.8C157.396 216.8 156.91 216.997 156.505 217.392C156.11 217.787 155.897 218.373 155.865 219.152ZM163.694 224V215.824H164.846L165.07 217.024C165.368 216.576 165.752 216.24 166.222 216.016C166.702 215.781 167.219 215.664 167.774 215.664C168.339 215.664 168.835 215.771 169.262 215.984C169.699 216.197 170.04 216.517 170.286 216.944C170.531 217.36 170.654 217.883 170.654 218.512V224H169.054V218.784C169.054 218.112 168.899 217.632 168.59 217.344C168.28 217.045 167.843 216.896 167.278 216.896C166.915 216.896 166.579 216.987 166.27 217.168C165.971 217.349 165.731 217.595 165.55 217.904C165.379 218.203 165.294 218.549 165.294 218.944V224H163.694ZM175.531 224.16C175.136 224.16 174.779 224.096 174.459 223.968C174.149 223.84 173.904 223.637 173.723 223.36C173.552 223.072 173.467 222.693 173.467 222.224V217.072H172.571V215.824H173.515L174.075 213.216H175.067V215.824H176.971V217.072H175.067V221.936C175.067 222.405 175.163 222.704 175.355 222.832C175.547 222.96 175.755 223.024 175.979 223.024C176.096 223.024 176.256 222.997 176.459 222.944C176.672 222.891 176.843 222.837 176.971 222.784V223.856C176.853 223.92 176.709 223.973 176.539 224.016C176.379 224.069 176.208 224.107 176.027 224.128C175.856 224.149 175.691 224.16 175.531 224.16Z" fill="#5D6180"/>
<path d="M74.9038 190C74.9038 187.653 75.1971 185.38 75.7838 183.18C76.3704 180.98 77.1624 178.868 78.1598 176.844C79.1571 174.791 80.2571 172.84 81.4598 170.992C82.6918 169.144 83.9238 167.413 85.1558 165.8H71.1198V159.816H93.0758V163.072C91.2278 165.477 89.6291 167.765 88.2798 169.936C86.9598 172.107 85.8744 174.248 85.0238 176.36C84.2024 178.472 83.5864 180.643 83.1758 182.872C82.7944 185.101 82.6331 187.477 82.6918 190H74.9038ZM108.574 190.44C106.521 190.44 104.673 189.985 103.03 189.076C101.417 188.137 100.126 186.876 99.1581 185.292C98.2194 183.679 97.7501 181.845 97.7501 179.792V170.024C97.7501 167.941 98.2341 166.108 99.2021 164.524C100.17 162.911 101.475 161.649 103.118 160.74C104.761 159.831 106.594 159.376 108.618 159.376H109.542C111.449 159.376 113.165 159.772 114.69 160.564C116.245 161.327 117.477 162.456 118.386 163.952C119.325 165.419 119.794 167.223 119.794 169.364H113.502C113.502 167.897 113.091 166.753 112.27 165.932C111.449 165.111 110.422 164.7 109.19 164.7C108.339 164.7 107.562 164.905 106.858 165.316C106.183 165.697 105.641 166.225 105.23 166.9C104.849 167.545 104.658 168.293 104.658 169.144V173.588C105.45 172.708 106.418 172.033 107.562 171.564C108.735 171.095 109.909 170.86 111.082 170.86C112.871 170.86 114.47 171.212 115.878 171.916C117.315 172.62 118.445 173.647 119.266 174.996C120.087 176.345 120.498 178.017 120.498 180.012C120.498 182.065 119.999 183.884 119.002 185.468C118.034 187.023 116.714 188.24 115.042 189.12C113.37 190 111.522 190.44 109.498 190.44H108.574ZM109.19 185.38C110.187 185.38 111.009 185.175 111.654 184.764C112.329 184.324 112.827 183.723 113.15 182.96C113.502 182.168 113.678 181.259 113.678 180.232C113.678 179.176 113.502 178.267 113.15 177.504C112.798 176.741 112.285 176.155 111.61 175.744C110.935 175.333 110.129 175.128 109.19 175.128C108.222 175.128 107.401 175.333 106.726 175.744C106.051 176.155 105.538 176.741 105.186 177.504C104.834 178.267 104.658 179.161 104.658 180.188C104.658 181.273 104.834 182.212 105.186 183.004C105.538 183.767 106.051 184.353 106.726 184.764C107.43 185.175 108.251 185.38 109.19 185.38ZM124.996 190V183.312H131.86V190H124.996ZM147.763 190.44C145.563 190.44 143.627 190.117 141.955 189.472C140.283 188.797 138.977 187.815 138.039 186.524C137.129 185.233 136.675 183.635 136.675 181.728C136.675 179.88 137.1 178.399 137.951 177.284C138.831 176.14 139.975 175.26 141.383 174.644V174.468C140.327 173.793 139.447 172.972 138.743 172.004C138.039 171.036 137.687 169.701 137.687 168C137.687 166.123 138.156 164.553 139.095 163.292C140.033 162.001 141.295 161.033 142.879 160.388C144.463 159.713 146.223 159.376 148.159 159.376C150.095 159.376 151.825 159.713 153.351 160.388C154.905 161.033 156.123 162.001 157.003 163.292C157.912 164.553 158.367 166.123 158.367 168C158.367 169.144 158.191 170.127 157.839 170.948C157.516 171.74 157.076 172.415 156.519 172.972C155.991 173.529 155.375 174.028 154.671 174.468V174.644C156.079 175.289 157.208 176.169 158.059 177.284C158.939 178.369 159.379 179.851 159.379 181.728C159.379 183.576 158.895 185.16 157.927 186.48C156.959 187.771 155.609 188.753 153.879 189.428C152.148 190.103 150.109 190.44 147.763 190.44ZM148.027 185.644C149.523 185.644 150.623 185.233 151.327 184.412C152.031 183.591 152.383 182.476 152.383 181.068C152.383 179.66 152.001 178.575 151.239 177.812C150.476 177.02 149.405 176.624 148.027 176.624C146.619 176.624 145.533 177.035 144.771 177.856C144.037 178.648 143.671 179.733 143.671 181.112C143.671 182.549 144.037 183.664 144.771 184.456C145.504 185.248 146.589 185.644 148.027 185.644ZM148.027 172.576C149.229 172.576 150.197 172.209 150.931 171.476C151.693 170.713 152.075 169.657 152.075 168.308C152.075 166.959 151.708 165.917 150.975 165.184C150.241 164.451 149.244 164.084 147.983 164.084C146.721 164.084 145.724 164.465 144.991 165.228C144.287 165.961 143.935 166.988 143.935 168.308C143.935 169.687 144.316 170.743 145.079 171.476C145.841 172.209 146.824 172.576 148.027 172.576ZM166.121 190L184.513 159.816H188.209L169.861 190H166.121ZM168.189 175.172C167.192 175.172 166.282 174.937 165.461 174.468C164.64 173.969 163.994 173.309 163.525 172.488C163.056 171.667 162.821 170.772 162.821 169.804V165.228C162.821 164.231 163.056 163.321 163.525 162.5C163.994 161.679 164.64 161.033 165.461 160.564C166.282 160.065 167.192 159.816 168.189 159.816H168.937C169.964 159.816 170.873 160.065 171.665 160.564C172.486 161.033 173.132 161.679 173.601 162.5C174.07 163.321 174.305 164.231 174.305 165.228V169.804C174.305 170.772 174.07 171.667 173.601 172.488C173.132 173.309 172.486 173.969 171.665 174.468C170.873 174.937 169.964 175.172 168.937 175.172H168.189ZM168.585 172.312C169.201 172.312 169.685 172.121 170.037 171.74C170.418 171.329 170.609 170.831 170.609 170.244V164.744C170.609 164.157 170.418 163.673 170.037 163.292C169.685 162.881 169.201 162.676 168.585 162.676C167.998 162.676 167.5 162.881 167.089 163.292C166.708 163.673 166.517 164.157 166.517 164.744V170.244C166.517 170.831 166.708 171.329 167.089 171.74C167.5 172.121 167.998 172.312 168.585 172.312ZM185.349 190.044C184.352 190.044 183.442 189.795 182.621 189.296C181.8 188.797 181.154 188.137 180.685 187.316C180.216 186.495 179.981 185.6 179.981 184.632V180.056C179.981 179.059 180.216 178.149 180.685 177.328C181.154 176.507 181.8 175.861 182.621 175.392C183.442 174.893 184.352 174.644 185.349 174.644H186.097C187.124 174.644 188.033 174.893 188.825 175.392C189.646 175.861 190.292 176.507 190.761 177.328C191.23 178.149 191.465 179.059 191.465 180.056V184.632C191.465 185.6 191.23 186.495 190.761 187.316C190.292 188.137 189.646 188.797 188.825 189.296C188.033 189.795 187.124 190.044 186.097 190.044H185.349ZM185.745 187.184C186.361 187.184 186.845 186.979 187.197 186.568C187.578 186.157 187.769 185.659 187.769 185.072V179.616C187.769 179 187.578 178.501 187.197 178.12C186.845 177.709 186.361 177.504 185.745 177.504C185.158 177.504 184.66 177.709 184.249 178.12C183.868 178.501 183.677 179 183.677 179.616V185.072C183.677 185.659 183.868 186.157 184.249 186.568C184.66 186.979 185.158 187.184 185.745 187.184Z" fill="#060C3C"/>
<g filter="url(#filter5_d_1_8039)">
<rect x="77" y="30.5" width="110" height="54" rx="6" fill="white"/>
</g>
<path d="M122.284 54.7757L116.333 53.9109L113.673 48.5179C113.6 48.3702 113.48 48.2507 113.333 48.1781C112.962 47.9952 112.512 48.1476 112.327 48.5179L109.667 53.9109L103.716 54.7757C103.552 54.7992 103.402 54.8765 103.287 54.9937C103.149 55.1364 103.072 55.3284 103.075 55.5275C103.077 55.7265 103.159 55.9164 103.302 56.0554L107.607 60.2531L106.59 66.1804C106.566 66.3183 106.581 66.4601 106.634 66.5897C106.686 66.7194 106.774 66.8317 106.888 66.9139C107.001 66.9962 107.135 67.045 107.274 67.055C107.414 67.0649 107.554 67.0356 107.677 66.9702L113 64.1718L118.323 66.9702C118.468 67.0476 118.637 67.0734 118.798 67.0452C119.206 66.9749 119.48 66.5882 119.41 66.1804L118.393 60.2531L122.698 56.0554C122.816 55.9406 122.893 55.7906 122.916 55.6265C122.98 55.2163 122.694 54.8367 122.284 54.7757Z" fill="#FFD43D"/>
<path d="M136.304 65.5V61.958H129.726V59.296C129.961 58.9 130.217 58.4233 130.496 57.866C130.789 57.294 131.09 56.678 131.398 56.018C131.706 55.3433 132.007 54.654 132.3 53.95C132.593 53.246 132.857 52.5713 133.092 51.926C133.327 51.2807 133.517 50.7013 133.664 50.188H136.81C136.693 50.7307 136.502 51.3393 136.238 52.014C135.974 52.674 135.673 53.3633 135.336 54.082C134.999 54.8007 134.639 55.4973 134.258 56.172C133.877 56.832 133.503 57.4407 133.136 57.998C132.784 58.5407 132.454 58.9807 132.146 59.318H136.304V56.128C136.451 55.908 136.619 55.622 136.81 55.27C137.001 54.9033 137.184 54.522 137.36 54.126C137.551 53.7153 137.719 53.3193 137.866 52.938C138.013 52.5567 138.123 52.2413 138.196 51.992H139.626V59.318H141.694V61.958H139.626V65.5H136.304ZM143.899 69.284V68.866C144.412 68.3233 144.794 67.7733 145.043 67.216C145.292 66.6587 145.417 66.0793 145.417 65.478H143.899V61.782H147.287V64.906C147.287 65.742 147.148 66.5267 146.869 67.26C146.605 68.008 146.202 68.6827 145.659 69.284H143.899ZM155.216 65.72C154.116 65.72 153.148 65.5587 152.312 65.236C151.476 64.8987 150.824 64.4073 150.354 63.762C149.9 63.1167 149.672 62.3173 149.672 61.364C149.672 60.44 149.885 59.6993 150.31 59.142C150.75 58.57 151.322 58.13 152.026 57.822V57.734C151.498 57.3967 151.058 56.986 150.706 56.502C150.354 56.018 150.178 55.3507 150.178 54.5C150.178 53.5613 150.413 52.7767 150.882 52.146C151.352 51.5007 151.982 51.0167 152.774 50.694C153.566 50.3567 154.446 50.188 155.414 50.188C156.382 50.188 157.248 50.3567 158.01 50.694C158.788 51.0167 159.396 51.5007 159.836 52.146C160.291 52.7767 160.518 53.5613 160.518 54.5C160.518 55.072 160.43 55.5633 160.254 55.974C160.093 56.37 159.873 56.7073 159.594 56.986C159.33 57.2647 159.022 57.514 158.67 57.734V57.822C159.374 58.1447 159.939 58.5847 160.364 59.142C160.804 59.6847 161.024 60.4253 161.024 61.364C161.024 62.288 160.782 63.08 160.298 63.74C159.814 64.3853 159.14 64.8767 158.274 65.214C157.409 65.5513 156.39 65.72 155.216 65.72ZM155.348 63.322C156.096 63.322 156.646 63.1167 156.998 62.706C157.35 62.2953 157.526 61.738 157.526 61.034C157.526 60.33 157.336 59.7873 156.954 59.406C156.573 59.01 156.038 58.812 155.348 58.812C154.644 58.812 154.102 59.0173 153.72 59.428C153.354 59.824 153.17 60.3667 153.17 61.056C153.17 61.7747 153.354 62.332 153.72 62.728C154.087 63.124 154.63 63.322 155.348 63.322ZM155.348 56.788C155.95 56.788 156.434 56.6047 156.8 56.238C157.182 55.8567 157.372 55.3287 157.372 54.654C157.372 53.9793 157.189 53.4587 156.822 53.092C156.456 52.7253 155.957 52.542 155.326 52.542C154.696 52.542 154.197 52.7327 153.83 53.114C153.478 53.4807 153.302 53.994 153.302 54.654C153.302 55.3433 153.493 55.8713 153.874 56.238C154.256 56.6047 154.747 56.788 155.348 56.788Z" fill="#FFD43D"/>
<defs>
<filter id="filter0_d_1_8039" x="218" y="46.5" width="333" height="296" filterUnits="userSpaceOnUse" color-interpolation-filters="sRGB">
<feFlood flood-opacity="0" result="BackgroundImageFix"/>
<feColorMatrix in="SourceAlpha" type="matrix" values="0 0 0 0 0 0 0 0 0 0 0 0 0 0 0 0 0 0 127 0" result="hardAlpha"/>
<feMorphology radius="2" operator="erode" in="SourceAlpha" result="effect1_dropShadow_1_8039"/>
<feOffset dy="8"/>
<feGaussianBlur stdDeviation="20"/>
<feColorMatrix type="matrix" values="0 0 0 0 0.0235294 0 0 0 0 0.0470588 0 0 0 0 0.231373 0 0 0 0.08 0"/>
<feBlend mode="normal" in2="BackgroundImageFix" result="effect1_dropShadow_1_8039"/>
<feBlend mode="normal" in="SourceGraphic" in2="effect1_dropShadow_1_8039" result="shape"/>
</filter>
<filter id="filter1_d_1_8039" x="0" y="298.5" width="464" height="226" filterUnits="userSpaceOnUse" color-interpolation-filters="sRGB">
<feFlood flood-opacity="0" result="BackgroundImageFix"/>
<feColorMatrix in="SourceAlpha" type="matrix" values="0 0 0 0 0 0 0 0 0 0 0 0 0 0 0 0 0 0 127 0" result="hardAlpha"/>
<feMorphology radius="2" operator="erode" in="SourceAlpha" result="effect1_dropShadow_1_8039"/>
<feOffset dy="8"/>
<feGaussianBlur stdDeviation="20"/>
<feColorMatrix type="matrix" values="0 0 0 0 0.0235294 0 0 0 0 0.0470588 0 0 0 0 0.231373 0 0 0 0.08 0"/>
<feBlend mode="normal" in2="BackgroundImageFix" result="effect1_dropShadow_1_8039"/>
<feBlend mode="normal" in="SourceGraphic" in2="effect1_dropShadow_1_8039" result="shape"/>
</filter>
<filter id="filter2_d_1_8039" x="414.756" y="307.5" width="162.244" height="128.651" filterUnits="userSpaceOnUse" color-interpolation-filters="sRGB">
<feFlood flood-opacity="0" result="BackgroundImageFix"/>
<feColorMatrix in="SourceAlpha" type="matrix" values="0 0 0 0 0 0 0 0 0 0 0 0 0 0 0 0 0 0 127 0" result="hardAlpha"/>
<feOffset dy="6"/>
<feGaussianBlur stdDeviation="10"/>
<feColorMatrix type="matrix" values="0 0 0 0 0.11 0 0 0 0 0.14137 0 0 0 0 0.4125 0 0 0 0.05 0"/>
<feBlend mode="normal" in2="BackgroundImageFix" result="effect1_dropShadow_1_8039"/>
<feBlend mode="normal" in="SourceGraphic" in2="effect1_dropShadow_1_8039" result="shape"/>
</filter>
<filter id="filter3_d_1_8039" x="420.912" y="298.484" width="152" height="152" filterUnits="userSpaceOnUse" color-interpolation-filters="sRGB">
<feFlood flood-opacity="0" result="BackgroundImageFix"/>
<feColorMatrix in="SourceAlpha" type="matrix" values="0 0 0 0 0 0 0 0 0 0 0 0 0 0 0 0 0 0 127 0" result="hardAlpha"/>
<feMorphology radius="2" operator="erode" in="SourceAlpha" result="effect1_dropShadow_1_8039"/>
<feOffset dy="8"/>
<feGaussianBlur stdDeviation="20"/>
<feColorMatrix type="matrix" values="0 0 0 0 0.0235294 0 0 0 0 0.0470588 0 0 0 0 0.231373 0 0 0 0.08 0"/>
<feBlend mode="normal" in2="BackgroundImageFix" result="effect1_dropShadow_1_8039"/>
<feBlend mode="normal" in="SourceGraphic" in2="effect1_dropShadow_1_8039" result="shape"/>
</filter>
<filter id="filter4_d_1_8039" x="0" y="86" width="262" height="256" filterUnits="userSpaceOnUse" color-interpolation-filters="sRGB">
<feFlood flood-opacity="0" result="BackgroundImageFix"/>
<feColorMatrix in="SourceAlpha" type="matrix" values="0 0 0 0 0 0 0 0 0 0 0 0 0 0 0 0 0 0 127 0" result="hardAlpha"/>
<feMorphology radius="2" operator="erode" in="SourceAlpha" result="effect1_dropShadow_1_8039"/>
<feOffset dy="8"/>
<feGaussianBlur stdDeviation="20"/>
<feColorMatrix type="matrix" values="0 0 0 0 0.0235294 0 0 0 0 0.0470588 0 0 0 0 0.231373 0 0 0 0.08 0"/>
<feBlend mode="normal" in2="BackgroundImageFix" result="effect1_dropShadow_1_8039"/>
<feBlend mode="normal" in="SourceGraphic" in2="effect1_dropShadow_1_8039" result="shape"/>
</filter>
<filter id="filter5_d_1_8039" x="39" y="0.5" width="186" height="130" filterUnits="userSpaceOnUse" color-interpolation-filters="sRGB">
<feFlood flood-opacity="0" result="BackgroundImageFix"/>
<feColorMatrix in="SourceAlpha" type="matrix" values="0 0 0 0 0 0 0 0 0 0 0 0 0 0 0 0 0 0 127 0" result="hardAlpha"/>
<feMorphology radius="2" operator="erode" in="SourceAlpha" result="effect1_dropShadow_1_8039"/>
<feOffset dy="8"/>
<feGaussianBlur stdDeviation="20"/>
<feColorMatrix type="matrix" values="0 0 0 0 0.0235294 0 0 0 0 0.0470588 0 0 0 0 0.231373 0 0 0 0.08 0"/>
<feBlend mode="normal" in2="BackgroundImageFix" result="effect1_dropShadow_1_8039"/>
<feBlend mode="normal" in="SourceGraphic" in2="effect1_dropShadow_1_8039" result="shape"/>
</filter>
</defs>
</svg>
