<svg width="556" height="540" viewBox="0 0 556 540" fill="none" xmlns="http://www.w3.org/2000/svg">
<rect width="90" height="90" transform="matrix(-1.19249e-08 1 1 1.19249e-08 400 449.72)" fill="#F4F1FF"/>
<rect width="66" height="66" transform="matrix(-1.19249e-08 1 1 1.19249e-08 490 383.126)" fill="#F4F1FF"/>
<rect width="60" height="60" transform="matrix(-1.19249e-08 1 1 1.19249e-08 195 390)" fill="#F4F1FF"/>
<rect width="130" height="130" transform="matrix(1 -3.30913e-08 -3.05195e-08 -1 158 240)" fill="#F4F1FF"/>
<rect width="110" height="110" transform="matrix(1 -2.82896e-08 -3.55875e-08 -1 48 110)" fill="#F4F1FF"/>
<rect width="90" height="90" transform="matrix(1 -3.30913e-08 -3.05195e-08 -1 288 110)" fill="#F4F1FF"/>
<rect x="280" y="450" width="120" height="120" transform="rotate(-90 280 450)" fill="#F4F1FF"/>
<rect x="358" y="240" width="40" height="40" transform="rotate(-90 358 240)" fill="#F4F1FF"/>
<rect x="510" y="154" width="44" height="44" transform="rotate(-90 510 154)" fill="#F4F1FF"/>
<rect x="48" y="205" width="60" height="60" transform="rotate(-90 48 205)" fill="#F4F1FF"/>
<rect x="280" y="540" width="90" height="60" transform="rotate(-90 280 540)" fill="#F4F1FF"/>
<rect y="465" width="70" height="70" transform="rotate(-90 0 465)" fill="#F4F1FF"/>
<rect y="339" width="34" height="70" transform="rotate(-90 0 339)" fill="#F4F1FF"/>
<rect x="70" y="395" width="90" height="90" transform="rotate(-90 70 395)" fill="#F4F1FF"/>
<rect width="86" height="86" transform="matrix(1 -3.30913e-08 -3.05195e-08 -1 468 240)" fill="#F4F1FF"/>
<rect width="44" height="44" transform="matrix(1 -3.30913e-08 -3.05195e-08 -1 467 110)" fill="#F4F1FF"/>
<rect x="526" y="540" width="30" height="30" transform="rotate(-90 526 540)" fill="#F4F1FF"/>
<rect x="208" y="50" width="30" height="30" transform="rotate(-90 208 50)" fill="#F4F1FF"/>
</svg>
