<svg width="30" height="34" viewBox="0 0 30 34" fill="none" xmlns="http://www.w3.org/2000/svg">
<path d="M22.0519 11.5229H7.94792C4.01885 11.5229 0.833252 14.6383 0.833252 18.4807V26.7088C0.833252 30.5512 4.01885 33.6666 7.94792 33.6666H22.0519C25.981 33.6666 29.1666 30.5512 29.1666 26.7088V18.4807C29.1666 14.6383 25.981 11.5229 22.0519 11.5229Z" fill="#9374FF"/>
<path fill-rule="evenodd" clip-rule="evenodd" d="M21.1451 19.0311C21.6802 19.6635 21.6013 20.61 20.9689 21.1451L14.4689 26.6451C14.1489 26.9159 13.7302 27.0404 13.3143 26.9885C12.8983 26.9366 12.523 26.713 12.2794 26.3719L9.77939 22.8719C9.29788 22.1978 9.45402 21.2609 10.1281 20.7794C10.8023 20.2979 11.7391 20.4541 12.2206 21.1282L13.7741 23.3031L19.0311 18.855C19.6635 18.3198 20.61 18.3987 21.1451 19.0311Z" fill="#FFDC60"/>
<path d="M24.2045 9.3265V11.7777C23.6117 11.6121 22.9851 11.5293 22.3415 11.5293H21.2407V9.3265C21.2407 5.96439 18.4463 3.23163 15.0084 3.23163C11.5705 3.23163 8.77608 5.94782 8.75915 9.29338V11.5293H7.67527C7.01478 11.5293 6.38816 11.6121 5.79541 11.7943V9.3265C5.81235 4.35786 9.92771 0.333252 14.9745 0.333252C20.0891 0.333252 24.2045 4.35786 24.2045 9.3265Z" fill="#FFDC60"/>
</svg>
