<svg width="34" height="34" viewBox="0 0 34 34" fill="none" xmlns="http://www.w3.org/2000/svg">
<path d="M13.9213 6.25923C14.0061 6.43201 14.0622 6.61703 14.0873 6.80725L14.5514 13.7071L14.7817 17.1751C14.7841 17.5318 14.84 17.8861 14.9478 18.2267C15.226 18.8876 15.8953 19.3076 16.6234 19.2783L27.7189 18.5526C28.1993 18.5447 28.6633 18.7244 29.0087 19.0522C29.2966 19.3253 29.4824 19.6826 29.5409 20.067L29.5606 20.3003C29.1014 26.6582 24.4319 31.9611 18.0873 33.33C11.7426 34.6989 5.23643 31.8072 2.10118 26.2248C1.19731 24.6031 0.632745 22.8204 0.440631 20.9816C0.360376 20.4373 0.325037 19.8875 0.33496 19.3376C0.325052 12.5212 5.17911 6.62828 11.9739 5.20763C12.7917 5.08029 13.5934 5.51322 13.9213 6.25923Z" fill="#9374FF"/>
<path d="M18.45 0.334617C26.0498 0.527963 32.4372 5.9929 33.6667 13.3537L33.6549 13.408L33.6214 13.487L33.626 13.7039C33.6086 13.9911 33.4977 14.2675 33.3066 14.4907C33.1075 14.7233 32.8355 14.8816 32.536 14.9431L32.3533 14.9682L19.552 15.7976C19.1262 15.8396 18.7022 15.7023 18.3856 15.4198C18.1217 15.1845 17.953 14.8667 17.9053 14.5244L17.0461 1.74169C17.0311 1.69847 17.0311 1.65161 17.0461 1.60839C17.0578 1.25604 17.2129 0.922985 17.4767 0.683635C17.7405 0.444285 18.0911 0.318585 18.45 0.334617Z" fill="#FFDC60"/>
</svg>
